<?xml version="1.0" encoding="UTF-8"?>
<svg version="1.1" xmlns="http://www.w3.org/2000/svg" width="1594" height="842">
<path d="M0 0 C44.28977592 -0.04571998 88.57954871 -0.08106813 132.86934363 -0.10213066 C138.10959176 -0.10463178 143.34983984 -0.10722046 148.59008789 -0.10986328 C149.63323591 -0.1103879 150.67638394 -0.11091252 151.75114251 -0.11145304 C168.59572842 -0.12013284 185.44030055 -0.13588932 202.28487831 -0.15430559 C219.59565813 -0.17307236 236.90643079 -0.18413099 254.21722037 -0.18817699 C264.8810266 -0.19090805 275.54479385 -0.19950336 286.20858807 -0.21583293 C293.54175038 -0.22648367 300.87489282 -0.22958253 308.20806228 -0.22700275 C312.42576602 -0.22573391 316.64340211 -0.22754417 320.86109352 -0.23841095 C367.2255779 -0.35187168 367.2255779 -0.35187168 389.375 4.25 C390.98592529 4.5742395 390.98592529 4.5742395 392.62939453 4.9050293 C402.33003177 6.93231938 411.69464496 9.60246339 421 13 C421.80598633 13.29245605 422.61197266 13.58491211 423.44238281 13.88623047 C473.9750394 32.50819463 514.12849086 68.21959243 537.10205078 117.04882812 C549.71676439 144.45959244 555.22635478 173.62320967 555.25 203.6875 C555.25101212 204.84742966 555.25101212 204.84742966 555.25204468 206.03079224 C555.20617277 239.26734798 548.00053463 270.74445145 532 300 C531.49412354 300.93489258 531.49412354 300.93489258 530.97802734 301.88867188 C517.60811132 326.28067813 497.25738477 346.94714558 474 362 C473.30052246 362.45310547 472.60104492 362.90621094 471.88037109 363.37304688 C429.9157132 390.11263239 382.89746198 396.21274947 334.15234375 396.09765625 C331.80009491 396.09578672 329.44784568 396.09436535 327.09559631 396.09336853 C320.96209603 396.08958547 314.82862016 396.07979211 308.69512939 396.06866455 C302.41329274 396.05835893 296.13145208 396.05385148 289.84960938 396.04882812 C277.56639564 396.03816525 265.28319986 396.02114065 253 396 C253 395.34 253 394.68 253 394 C253.53141602 393.83508057 254.06283203 393.67016113 254.61035156 393.50024414 C275.12239441 387.06772021 296.00791475 378.9947235 314 367 C316.05102539 367.01464844 316.05102539 367.01464844 318.53515625 367.359375 C326.82332346 368.27952626 335.10741878 368.24402302 343.4375 368.25 C344.70648132 368.25101212 344.70648132 368.25101212 346.00109863 368.25204468 C358.55511675 368.23614336 370.72364023 367.8673061 383 365 C383.74475586 364.83371094 384.48951172 364.66742187 385.25683594 364.49609375 C416.34285938 357.36202972 443.87066608 339.86873024 461.125 312.75 C462.44029652 310.51373127 463.7313538 308.26305979 465 306 C465.33241699 305.41299316 465.66483398 304.82598633 466.00732422 304.22119141 C475.72669933 286.81564699 480.82414835 267.57883216 484 248 C484.16773926 246.99235596 484.16773926 246.99235596 484.33886719 245.96435547 C492.91894759 192.27795335 486.10583112 128.22034855 454.1875 82.8125 C432.75367993 53.25930734 402.06872821 34.76621874 366.125 28.6875 C349.78390053 26.73582742 333.49333983 26.88057155 317.0625 26.9375 C314.52929776 26.94252523 311.99609455 26.94708633 309.46289062 26.95117188 C303.30857239 26.96209596 297.1542908 26.97875289 291 27 C291.50861572 27.30638397 292.01723145 27.61276794 292.54125977 27.92843628 C294.88372972 29.34214363 297.22311704 30.76087817 299.5625 32.1796875 C300.36236328 32.66139404 301.16222656 33.14310059 301.98632812 33.6394043 C312.92227743 40.28466737 322.73746931 48.17538265 332 57 C332.85513184 57.81428467 332.85513184 57.81428467 333.72753906 58.64501953 C347.09024067 71.45413345 357.64918702 85.03704257 367 101 C367.38542969 101.65419922 367.77085937 102.30839844 368.16796875 102.98242188 C378.94106993 121.53201077 386.05276148 141.95201241 390 163 C390.24339111 164.26239502 390.24339111 164.26239502 390.49169922 165.55029297 C395.18782316 191.06638437 395.10345127 219.56366519 390 245 C389.85014648 245.76103027 389.70029297 246.52206055 389.54589844 247.30615234 C380.38521488 292.47746353 354.80370825 332.98547001 316.25146484 358.55371094 C309.70913026 362.75635571 302.90629926 366.43651473 296 370 C295.20674316 370.41491699 294.41348633 370.82983398 293.59619141 371.25732422 C272.98529089 381.93427149 250.96328959 389.47658617 228 393 C227.30938477 393.10892578 226.61876953 393.21785156 225.90722656 393.33007812 C208.10635609 396.06074711 190.08400259 396.14953638 172.11645508 396.11352539 C170.1038259 396.11324246 168.09119662 396.11340331 166.0785675 396.1139679 C160.67902911 396.11425175 155.27951348 396.10842238 149.87998033 396.10139394 C144.21325694 396.09509108 138.54653287 396.09455117 132.87980652 396.09336853 C122.17772899 396.09027548 111.47566183 396.08208972 100.77358884 396.07201904 C88.57749291 396.06079457 76.38139647 396.05533157 64.18529665 396.05032361 C39.12352519 396.03990516 14.06176362 396.0221411 -11 396 C-11 389.07 -11 382.14 -11 375 C-8.87820313 374.81824219 -6.75640625 374.63648438 -4.5703125 374.44921875 C-2.48153527 374.26299633 -0.39311178 374.07319184 1.6953125 373.88305664 C3.13020364 373.75432145 4.5654266 373.62922444 6.00097656 373.50805664 C18.68789063 372.43311936 32.98625253 371.15071286 41.85546875 360.84375 C52.15625116 345.17638713 50.14245656 324.17233746 50.0625 306.25 C50.05747437 304.28125114 50.05291335 302.31250104 50.04882812 300.34375 C50.03790809 295.56246882 50.02070218 290.78124842 50 286 C49.28968376 286.71731796 49.28968376 286.71731796 48.5650177 287.4491272 C47.62754951 288.39204117 47.62754951 288.39204117 46.67114258 289.35400391 C46.05322342 289.97659088 45.43530426 290.59917786 44.79866028 291.2406311 C42.54479662 293.44525955 40.15816827 295.41796079 37.6875 297.375 C34.05685057 300.29433852 30.55001193 303.27980607 27.125 306.4375 C21.36413786 311.66561784 15.24259096 316.37007837 9 321 C8.34 321.48984375 7.68 321.9796875 7 322.484375 C-18.11844229 341.04203012 -44.38983866 357.42073375 -72 372 C-72.86254395 372.45729492 -73.72508789 372.91458984 -74.61376953 373.38574219 C-99.70015977 386.58710458 -126.15016511 396.99333468 -153 406 C-154.0327002 406.34869141 -155.06540039 406.69738281 -156.12939453 407.05664062 C-194.93200705 420.00115751 -235.29209029 427.56107189 -276 431 C-277.26577881 431.10803955 -277.26577881 431.10803955 -278.55712891 431.21826172 C-315.20202216 434.18351709 -352.89078684 431.83871193 -388.625 423.125 C-389.99060059 422.79483887 -389.99060059 422.79483887 -391.38378906 422.45800781 C-399.93498266 420.25491554 -407.59030347 417.1536362 -416 414 C-416 393.21 -416 372.42 -416 351 C-412.5386255 351.86534362 -410.06138736 352.85572895 -406.9140625 354.44140625 C-376.5717003 369.51127526 -345.64601719 378.67222955 -312 383 C-311.1229541 383.11714355 -310.2459082 383.23428711 -309.34228516 383.35498047 C-228.41853202 393.69122755 -142.4574601 373.54848506 -69.35693359 339.10644531 C-66.88744167 337.94716031 -64.40735476 336.81285619 -61.92578125 335.6796875 C-49.45339197 329.9280502 -37.50470289 323.4247218 -25.63183594 316.52685547 C-23.26375882 315.15301927 -20.88775053 313.79454648 -18.5078125 312.44140625 C8.19630899 297.14453806 33.42135916 278.74668018 57 259 C57.50450684 258.58041016 58.00901367 258.16082031 58.52880859 257.72851562 C66.0299661 251.48704233 73.3223486 245.0618888 80.46875 238.41796875 C82.04504823 236.95828442 83.6306604 235.50934125 85.21875 234.0625 C94.60672446 225.49300021 103.93441484 216.79963532 112.17578125 207.1015625 C114.01604464 204.98151602 115.92202652 202.93194985 117.84130859 200.88354492 C123.29971714 195.03822319 128.31135525 188.95022933 133.19140625 182.6171875 C135.0587702 180.1949086 136.96046803 177.80826318 138.90234375 175.4453125 C157.26648848 153.06088448 173.23024709 127.98828309 186 102 C186.66 102 187.32 102 188 102 C187.45387717 106.35657987 186.4145824 109.60825492 184.33203125 113.46484375 C183.49744385 115.01848633 183.49744385 115.01848633 182.64599609 116.60351562 C182.04094238 117.70373047 181.43588867 118.80394531 180.8125 119.9375 C180.18682129 121.08541016 179.56114258 122.23332031 178.91650391 123.41601562 C162.5797323 153.21866818 143.48386287 181.2443331 122.5625 208 C121.95353882 208.78117187 121.95353882 208.78117187 121.33227539 209.578125 C120.91453857 210.10921875 120.49680176 210.6403125 120.06640625 211.1875 C119.63997833 211.74936508 119.21355042 212.31123016 118.77420044 212.89012146 C117 215 117 215 114.55232239 217.22621155 C107.41054107 224.28005163 105.91163314 229.95115293 105.75736713 239.88830662 C105.76465086 242.90476558 105.82209643 245.91777339 105.8828125 248.93359375 C105.89133141 251.06005183 105.89597195 253.18652862 105.89694214 255.31300354 C105.90922305 259.75421433 105.95436061 264.19338776 106.02587891 268.6340332 C106.11636629 274.29386632 106.14593178 279.95185969 106.15335274 285.61234951 C106.16226044 289.99914795 106.19295662 294.38556981 106.2311058 298.77220345 C106.24872219 300.85753383 106.26225281 302.94290328 106.27142715 305.02828789 C106.38131143 322.58430322 108.28350149 337.40887283 120.375 351.125 C135.10693372 364.98704811 157.14236342 368.18528605 176.44311523 368.29516602 C177.85793009 368.30673748 179.27269957 368.32727032 180.68725586 368.35668945 C182.7514351 368.39948895 184.81433786 368.41554191 186.87890625 368.42578125 C188.1016626 368.44036377 189.32441895 368.45494629 190.58422852 368.4699707 C196.62935097 367.63823168 200.90842261 363.77362302 204.6171875 359.1328125 C215.19343758 342.8202912 212.29045173 317.18561755 212.24291992 298.64526367 C212.24399574 296.17554677 212.24593885 293.70583012 212.24867249 291.2361145 C212.25297888 285.27990052 212.24814436 279.32373769 212.23882218 273.36753347 C212.22832862 266.40744698 212.22851122 259.447372 212.22899476 252.48727909 C212.22949299 240.05864631 212.22039762 227.63003945 212.20581055 215.20141602 C212.19171277 203.18318205 212.18464065 191.16497087 212.18530273 179.14672852 C212.18536267 178.03500916 212.18536267 178.03500916 212.18542381 176.90083083 C212.18546417 176.16087326 212.18550452 175.4209157 212.1855461 174.65853518 C212.18623835 160.90862517 212.18033421 147.1587247 212.17139288 133.40881779 C212.1683953 128.57400451 212.16731559 123.739193 212.16686058 118.90437889 C212.16610171 112.38461946 212.15969861 105.86487896 212.14969444 99.34512711 C212.14679348 96.96363405 212.14553915 94.58213829 212.14612198 92.20064354 C212.81136155 63.53499083 212.81136155 63.53499083 206 36 C212.19284409 36.53081521 217.68945366 37.55032841 223.5625 39.5625 C224.33480957 39.82426025 225.10711914 40.08602051 225.90283203 40.35571289 C233.97401168 43.19093115 241.50742124 46.89634754 249 51 C250.13953125 51.62390625 251.2790625 52.2478125 252.453125 52.890625 C255.35598358 54.53510154 258.21082247 56.16934513 261 58 C262.02937589 58.65257121 263.05875177 59.30514242 264.11932087 59.97748852 C266.07425074 61.64144725 266.89468939 62.59999156 267.55319345 65.10123217 C267.76631568 67.7834017 267.78316332 70.40800616 267.73930359 73.09846497 C267.74994369 74.63764769 267.74994369 74.63764769 267.76079875 76.20792502 C267.77738877 79.65196808 267.75119971 83.09436346 267.7253418 86.53833008 C267.7286002 89.00569127 267.7345352 91.47305018 267.74295044 93.94039917 C267.75537246 99.2585084 267.74964868 104.57612955 267.72788048 109.89417458 C267.69663533 117.60050135 267.7014047 125.30648568 267.71542368 133.01284786 C267.73751279 145.53912843 267.73505811 158.06527266 267.71508789 170.59155273 C267.71389856 171.3411538 267.71270924 172.09075486 267.71148387 172.86307111 C267.70969563 173.98877579 267.70969563 173.98877579 267.70787126 175.13722199 C267.69106412 185.74960385 267.68000365 196.36197043 267.67602539 206.97436523 C267.67573984 207.71971505 267.67545428 208.46506486 267.67516007 209.23300103 C267.67087896 221.69954409 267.67876139 234.16606299 267.69272357 246.6325981 C267.70054392 254.30955113 267.69614046 261.98632022 267.67546699 269.66325053 C267.66013741 275.56290555 267.65955769 281.46250361 267.6640358 287.3621788 C267.66325392 289.76946826 267.65735652 292.17676279 267.64575768 294.58402443 C267.17832224 318.16389492 267.17832224 318.16389492 275 340 C308.50358909 310.8550283 321.28529978 269.87597464 324.55615234 226.49414062 C324.7794522 222.99771307 324.90648639 219.50208478 325 216 C325.02191406 215.22430664 325.04382813 214.44861328 325.06640625 213.64941406 C326.29918903 162.01636194 316.18318678 107.16808559 280.03125 68.23046875 C278.34167945 66.37519032 276.83378449 64.4897288 275.3125 62.5 C261.78222122 46.8487586 238.46533559 37.31782485 219 32 C217.85917969 31.68546875 216.71835937 31.3709375 215.54296875 31.046875 C194.75819298 26.0171072 172.94433091 26.67745657 151.70776367 26.73925781 C147.68888173 26.75081908 143.67026217 26.74395619 139.65138912 26.73211288 C136.5243989 26.72489128 133.39747129 26.72718071 130.2704792 26.73236847 C128.78696218 26.73369551 127.30343935 26.73209067 125.81992912 26.72740936 C123.76122675 26.72232059 121.70295724 26.73007927 119.64428711 26.74121094 C118.47820419 26.74280212 117.31212128 26.74439331 116.11070251 26.74603271 C112.76077948 27.0195307 109.46782697 27.53217303 107 30 C106.9061597 32.14638597 106.88426657 34.29591981 106.8888855 36.4443512 C106.88888648 37.12559789 106.88888747 37.80684459 106.88888848 38.50873512 C106.88992776 40.80866835 106.89795907 43.10852777 106.90576172 45.40844727 C106.90763959 47.05076548 106.90898523 48.69308438 106.90983582 50.33540344 C106.91212497 53.88164956 106.91685598 57.42788161 106.92303085 60.974123 C106.9314163 66.58424893 106.92601299 72.19430609 106.91702271 77.8044281 C106.9155517 78.75045428 106.91408069 79.69648047 106.91256511 80.67117411 C106.90949411 82.60627309 106.90637407 84.541372 106.90320611 86.47647083 C106.88201018 99.54241508 106.86828121 112.60813691 106.90039062 125.67407227 C106.92193032 134.47966309 106.91875586 143.28486082 106.88698208 152.09042591 C106.87113566 156.75114909 106.86788365 161.41112096 106.89474106 166.07180977 C106.91980929 170.46097481 106.91218264 174.84888343 106.87986183 179.23798943 C106.87378275 180.84557502 106.87957289 182.45325788 106.89835548 184.06074524 C107.04672774 197.70595417 107.04672774 197.70595417 102.63075256 202.8263855 C101.44833951 203.91528339 100.23934606 204.97636892 99 206 C98.00167248 207.0202435 97.01209179 208.04923713 96.03735352 209.09204102 C95.07052023 210.06530158 94.10098236 211.03588209 93.12890625 212.00390625 C92.60288315 212.53088608 92.07686005 213.05786591 91.53489685 213.60081482 C90.43456579 214.70181901 89.33300068 215.80159125 88.23022461 216.90014648 C86.56573723 218.5592732 84.90666553 220.22368051 83.24804688 221.88867188 C77.66979403 227.47041611 72.00669345 232.87744673 66 238 C63.45653952 240.31935137 60.9225945 242.64826486 58.39453125 244.984375 C56.04078606 246.96566785 53.6500589 248.45076021 51 250 C50.99503478 248.61157158 50.99503478 248.61157158 50.98996925 247.19509411 C50.90871623 224.59791661 50.81632339 202.00080514 50.71247292 179.4037199 C50.66250394 168.4756222 50.61606019 157.54753141 50.578125 146.61938477 C50.54502389 137.08645435 50.50509488 127.55358022 50.45720994 118.0207122 C50.43212367 112.98038598 50.41029128 107.94009624 50.39665604 102.89972496 C50.38367136 98.13992111 50.36144686 93.3802435 50.33261681 88.6205101 C50.32366738 86.88855558 50.31788105 85.1565808 50.31578636 83.42460442 C50.30303506 74.4698057 50.00525743 65.62292373 49.09725952 56.70979309 C49.01896585 55.92946297 48.94067218 55.14913286 48.86000597 54.34515637 C48.16840152 48.16659171 46.70984721 42.62344232 44 37 C43.505 35.906875 43.01 34.81375 42.5 33.6875 C34.09097541 24.64779857 22.16537313 23.62100828 10.55371094 22.29370117 C7.03268513 21.88874954 3.51686694 21.43960837 0 21 C0 14.07 0 7.14 0 0 Z " fill="#6C6A68" transform="translate(665,165)"/>
<path d="M0 0 C21.04700943 -0.04657014 42.09400618 -0.08212722 63.14105701 -0.10362434 C72.91656577 -0.11387719 82.69204166 -0.12782082 92.4675293 -0.15087891 C101.0014108 -0.1709985 109.53526847 -0.18375978 118.06917304 -0.18817699 C122.57546584 -0.19075342 127.08169053 -0.19667912 131.5879612 -0.21146011 C172.69251847 -0.34079544 214.39517882 0.36635445 252 19 C252.60005859 19.29600098 253.20011719 19.59200195 253.81835938 19.89697266 C273.47650542 29.81715486 289.15336704 45.46010113 296.21875 66.65625 C302.60290993 88.36239377 302.37905714 112.52392532 292 133 C276.30863733 161.47982324 246.3005126 174.41965827 216.93847656 184.46850586 C215 185 215 185 212 185 C212 185.66 212 186.32 212 187 C212.81597656 187.02578125 213.63195313 187.0515625 214.47265625 187.078125 C245.82446218 188.57919079 276.59889632 196.51467522 301 217 C302.28583984 218.07701172 302.28583984 218.07701172 303.59765625 219.17578125 C324.09336278 237.01053052 336.71589408 258.74911391 338.75 286.0625 C340.17167688 310.70125395 332.51155978 333.84046469 317 353 C316.40960937 353.75410156 315.81921875 354.50820313 315.2109375 355.28515625 C294.28364501 380.53148571 261.68375517 390.93379048 230.1875 394.1875 C201.85120228 396.61184096 173.28583963 396.1401493 144.87482762 396.10139394 C139.40836929 396.0950381 133.94191007 396.09454712 128.47544861 396.09336853 C118.17751248 396.09029058 107.87958729 396.08212614 97.58165592 396.07201904 C85.83509188 396.06074645 74.08852724 396.0553197 62.34195912 396.05032361 C38.22796654 396.03993953 14.11398435 396.02220315 -10 396 C-10 389.07 -10 382.14 -10 375 C-6.97779297 374.74476563 -6.97779297 374.74476563 -3.89453125 374.484375 C-1.89517261 374.30324843 0.10417753 374.12201317 2.10327148 373.93798828 C3.46903875 373.81480206 4.83525347 373.69645887 6.2019043 373.58349609 C18.45179986 372.56529955 31.97670829 371.23762168 41 362 C49.63889057 351.68321468 50.15102819 337.54499766 50.14044189 324.71192932 C50.14341302 323.58200984 50.14638414 322.45209037 50.1494453 321.28793091 C50.15811043 317.50517883 50.15963871 313.72245848 50.16113281 309.93969727 C50.16522678 307.22574173 50.17076724 304.51178949 50.17617798 301.7978363 C50.18973361 294.42551245 50.19578206 287.05319405 50.20018864 279.6808598 C50.20295649 275.07133129 50.20719489 270.46180486 50.21169281 265.85227776 C50.22388325 253.07284585 50.2341821 240.2934156 50.2375679 227.513978 C50.23778747 226.69675292 50.23800703 225.87952783 50.23823325 225.03753835 C50.23845153 224.21842685 50.23866981 223.39931536 50.2388947 222.55538231 C50.23933816 220.89572688 50.23978472 219.23607145 50.24023438 217.57641602 C50.24056652 216.34156287 50.24056652 216.34156287 50.24090537 215.0817632 C50.2448487 201.75901438 50.26228949 188.43632041 50.2855939 175.11359275 C50.30936434 161.41302137 50.32177238 147.71247743 50.32293582 134.01188511 C50.32384954 126.32862321 50.32952469 118.64543274 50.34775543 110.96219063 C50.36323366 104.41617677 50.36823182 97.8702564 50.36001733 91.3242277 C50.3561375 87.99052053 50.35857406 84.65715266 50.37107468 81.32344437 C51.33518265 54.65091863 51.33518265 54.65091863 40.4609375 31.26953125 C30.33512979 22.23659706 12.75012482 22.1953242 0 21 C0 14.07 0 7.14 0 0 Z M108 27 C105.85424017 30.30226685 105.75267364 33.02397466 105.75949097 36.90985107 C105.75674164 38.11857376 105.75399231 39.32729645 105.75115967 40.57264709 C105.75823741 41.90878395 105.76550703 43.24491981 105.77294922 44.58105469 C105.77351347 45.99049369 105.7731965 47.39993329 105.77206421 48.80937195 C105.77149024 52.6334448 105.78325168 56.45739226 105.79721212 60.28143597 C105.80971211 64.27862093 105.81088941 68.27580876 105.81326294 72.27301025 C105.81947986 79.84129699 105.83589355 87.40952596 105.85596192 94.97778726 C105.87831432 103.59439477 105.88931269 112.21100504 105.89935279 120.82763433 C105.92025959 138.55178897 105.95543969 156.27588984 106 174 C113.62519575 174.07035501 121.25035675 174.12323566 128.87580585 174.15543652 C132.41886899 174.17091253 135.96170577 174.19180725 139.50463867 174.22631836 C169.62811238 174.5117901 195.5538104 173.11336843 218.74609375 151.41015625 C232.12627616 137.10240487 235.41834895 117.14309609 235.1484375 98.1953125 C234.190283 77.56977617 230.44736045 57.02479084 214.75 42.28515625 C193.51308489 24.63800378 164.74314862 24.81263357 138.56518555 24.81469727 C135.41246581 24.81248241 132.26008132 24.79418115 129.10742188 24.77539062 C127.09114702 24.77246091 125.07487052 24.7704733 123.05859375 24.76953125 C121.65389076 24.75875298 121.65389076 24.75875298 120.22080994 24.74775696 C113.83838352 24.68855641 113.83838352 24.68855641 108 27 Z M106 201 C105.92963435 216.77812258 105.8768778 232.55620215 105.84456348 248.33444309 C105.82915449 255.66206194 105.80818055 262.98958277 105.77368164 270.31713867 C105.74359498 276.71063288 105.72438175 283.10405604 105.71773452 289.49761909 C105.71385453 292.8768192 105.70486399 296.25581622 105.68280983 299.63495064 C105.26266568 330.6390501 105.26266568 330.6390501 119.5625 357.4375 C137.10027109 373.06753645 163.77112368 373.87487627 185.9765625 372.74609375 C210.38630337 371.13540074 233.80694105 365.64359447 251.37109375 347.55859375 C268.07335171 327.88844875 268.98306734 303.55554223 268 279 C266.32902439 259.0193185 256.88693997 241.90692118 243 228 C242.34128906 227.3296875 241.68257812 226.659375 241.00390625 225.96875 C212.56423675 199.05809499 168.58589285 200.62429101 132.375 200.875 C129.79557647 200.88506953 127.21614904 200.89418822 124.63671875 200.90234375 C118.42439169 200.9239973 112.21221522 200.95714775 106 201 Z " fill="#6C6A69" transform="translate(1196,165)"/>
<path d="M0 0 C9.23534419 8.42479536 17.23363378 17.4478153 24.65234375 27.50732422 C25.82603516 29.09867188 25.82603516 29.09867188 27.0234375 30.72216797 C58.45168984 74.7870833 70.55679732 129.47718339 61.96484375 182.88232422 C59.4296188 197.29363304 55.39098149 211.01219922 49.58984375 224.44482422 C49.27370117 225.18458496 48.95755859 225.9243457 48.63183594 226.68652344 C44.88030672 234.95335475 38.84636131 238.92127068 31.27734375 243.50732422 C29.88793579 244.35544678 29.88793579 244.35544678 28.47045898 245.22070312 C2.60267086 260.90512642 -24.16794733 275.39869841 -52.34765625 286.50732422 C-52.34765625 283.50732422 -52.34765625 283.50732422 -50.546875 281.55419922 C-49.71800781 280.79623047 -48.88914062 280.03826172 -48.03515625 279.25732422 C-16.40133049 248.24638673 -4.70912596 200.59100085 -4.13597107 157.55426025 C-3.99468627 142.80214926 -4.24214667 128.13294099 -6.34765625 113.50732422 C-6.53303955 112.20939941 -6.53303955 112.20939941 -6.72216797 110.88525391 C-9.90446504 89.56964949 -15.5983617 68.77833876 -25.34765625 49.50732422 C-25.69022461 48.82766602 -26.03279297 48.14800781 -26.38574219 47.44775391 C-42.48833548 16.06795654 -68.26031336 -8.19779083 -102.0390625 -19.18017578 C-140.40497209 -31.08892642 -181.30930935 -28.46356203 -217.34765625 -10.49267578 C-221.22963165 -8.39567488 -224.79597834 -6.10565675 -228.34765625 -3.49267578 C-229.37761719 -2.75533203 -230.40757812 -2.01798828 -231.46875 -1.25830078 C-265.92685652 23.93401783 -284.37736855 64.61695674 -291.1328125 105.96264648 C-299.04281146 158.04416304 -295.81426199 218.56695027 -264.25390625 262.96435547 C-263.3103125 264.223125 -263.3103125 264.223125 -262.34765625 265.50732422 C-261.4659375 266.7196875 -261.4659375 266.7196875 -260.56640625 267.95654297 C-240.30677253 294.61169666 -210.98837032 311.43647618 -178.09375 316.86669922 C-177.18753906 317.07810547 -176.28132812 317.28951172 -175.34765625 317.50732422 C-175.01765625 318.16732422 -174.68765625 318.82732422 -174.34765625 319.50732422 C-192.8066038 321.91001206 -211.05125935 322.81686767 -229.66015625 322.81982422 C-231.164039 322.8246582 -231.164039 322.8246582 -232.69830322 322.82958984 C-235.59855073 322.83528883 -238.4982412 322.8249657 -241.3984375 322.80810547 C-242.25475266 322.80889603 -243.11106781 322.80968658 -243.99333191 322.8105011 C-253.43927206 322.70224266 -261.33067616 321.25205516 -269.22265625 315.94482422 C-269.90537598 315.50082275 -270.5880957 315.05682129 -271.29150391 314.59936523 C-280.4345062 308.58423214 -289.00816577 302.0452717 -297.0546875 294.61279297 C-299.08855079 292.74524218 -301.16912648 290.96748201 -303.28515625 289.19482422 C-333.44081873 262.73292762 -353.36485953 222.58553777 -360.34765625 183.50732422 C-360.52643311 182.53158447 -360.70520996 181.55584473 -360.8894043 180.55053711 C-362.59353094 170.17775733 -362.70370472 159.93392027 -362.66015625 149.44482422 C-362.65833344 148.53657898 -362.65651062 147.62833374 -362.65463257 146.69256592 C-362.60979088 133.43607649 -362.27065796 120.49109069 -359.34765625 107.50732422 C-359.18136719 106.7401709 -359.01507813 105.97301758 -358.84375 105.18261719 C-347.27726814 53.27267499 -315.40897027 6.81697056 -270.55859375 -21.96533203 C-194.13558953 -69.56158709 -90.80408922 -69.35004204 0 0 Z " fill="#8D744B" transform="translate(624.34765625,216.49267578125)"/>
<path d="M0 0 C3.25207092 1.41738489 5.31361067 3.12526412 7.75 5.6875 C10.3981376 8.40416611 13.07263677 11.0125439 15.9375 13.5 C16.55154812 14.04118166 17.16559623 14.58236333 17.79825187 15.13994443 C19.97361313 17.0281737 19.97361313 17.0281737 22.32671952 18.66506064 C25.7821948 21.29525562 28.51102069 23.42721059 29.82842588 27.66461062 C30.14266492 30.85390388 30.17147839 33.9340768 30.10247803 37.13827515 C30.11718781 38.95248441 30.11718781 38.95248441 30.13219476 40.80334437 C30.15021861 44.14587612 30.12805591 47.48369317 30.08856773 50.82574368 C30.05577001 54.4362726 30.07513015 58.04657787 30.08792114 61.65718079 C30.10480613 68.72915524 30.07389673 75.80015187 30.02705726 82.87195979 C29.97429519 91.12935955 29.97017602 99.38657258 29.96821049 107.64411457 C29.9631466 122.40357791 29.9157331 137.16259903 29.84375 151.921875 C29.77420544 166.19176905 29.73150724 180.46138312 29.72070312 194.73144531 C29.72003482 195.60775472 29.71936652 196.48406413 29.71867797 197.38692836 C29.71735 199.15269496 29.71602393 200.91846156 29.71469976 202.68422816 C29.71404106 203.55561829 29.71338236 204.42700842 29.7127037 205.32480431 C29.71173177 206.6289149 29.71173177 206.6289149 29.71074019 207.95937117 C29.69957125 221.61577654 29.66547656 235.27213765 29.62831251 248.92849361 C29.61510116 253.84992193 29.60474759 258.77134621 29.59644613 263.69278513 C29.58301666 271.51855823 29.5592568 279.34416713 29.51612291 287.16983734 C29.49659617 290.73761117 29.48115348 294.30524538 29.47874069 297.87307549 C29.45068106 327.97561185 27.63237928 358.24753503 15 386 C14.52691406 387.05574219 14.05382812 388.11148437 13.56640625 389.19921875 C2.94086042 411.68851765 -15.5176259 428.91473456 -38.7890625 437.61328125 C-68.94226799 448.07974269 -106.27500198 447.20983426 -135.375 433.875 C-145.56545715 428.43693702 -154.63148498 420.34145525 -160 410 C-160.50466797 409.04673828 -160.50466797 409.04673828 -161.01953125 408.07421875 C-163.23860732 402.85584352 -163.30343001 397.52620703 -163.375 391.9375 C-163.38901855 391.18154541 -163.40303711 390.42559082 -163.41748047 389.64672852 C-163.34457284 381.05391006 -160.66539513 374.95850319 -154.83203125 368.6953125 C-148.44816032 362.78784985 -140.55920887 362.64397775 -132.296875 362.71875 C-126.24165075 363.23530942 -121.92695605 365.38673447 -117.3125 369.25 C-111.7278279 375.89123168 -107.29712767 382.77288224 -103.125 390.375 C-95.14232807 405.3462397 -95.14232807 405.3462397 -81.8359375 415.22265625 C-73.67260525 417.46026385 -64.97028582 417.00737789 -57.30078125 413.3671875 C-43.35761806 405.08177643 -37.26820663 390.69872987 -33.34768391 375.61012268 C-28.55580771 356.42365259 -28.57993703 336.85630197 -28.68453252 317.21026134 C-28.70189514 313.28958033 -28.70123716 309.3688946 -28.70263672 305.44818115 C-28.70708576 298.68177515 -28.7215029 291.91545327 -28.742136 285.14907837 C-28.77397344 274.450524 -28.77548265 263.75205995 -28.77262878 253.0534668 C-28.77202945 249.38099671 -28.77164761 245.70852664 -28.77134991 242.03605652 C-28.77127099 241.11888306 -28.77119208 240.20170961 -28.77111078 239.25674301 C-28.77068119 228.86321546 -28.77698747 218.46969529 -28.78588867 208.07617188 C-28.78669305 207.12803663 -28.78749742 206.17990138 -28.78832617 205.20303476 C-28.80209284 189.78651837 -28.83536219 174.37008516 -28.87301043 158.95361149 C-28.91100107 143.08629996 -28.9183667 127.21915914 -28.89972991 111.35181332 C-28.88941974 101.58212569 -28.90443627 91.81313253 -28.95217582 82.04355299 C-28.98275184 75.36192807 -28.98443925 68.68069339 -28.96330164 61.99903333 C-28.95203645 58.14551771 -28.95386808 54.29316303 -28.99064445 50.43978119 C-29.03020918 46.26281174 -29.0079944 42.08843767 -28.97981262 37.91137695 C-29.00127076 36.69457025 -29.02272891 35.47776354 -29.0448373 34.2240839 C-28.91892931 26.18419271 -28.91892931 26.18419271 -26.23491037 22.72538948 C-24.23670657 20.96118468 -22.21998411 19.46905722 -20 18 C-18.61014899 16.72396541 -17.2274559 15.43997281 -15.859375 14.140625 C-14.84230469 13.17962891 -14.84230469 13.17962891 -13.8046875 12.19921875 C-12.4188703 10.88453666 -11.03346267 9.56942272 -9.6484375 8.25390625 C-8.97554687 7.61839844 -8.30265625 6.98289063 -7.609375 6.328125 C-7.01092773 5.7599707 -6.41248047 5.19181641 -5.79589844 4.60644531 C-3.94133785 2.94752625 -2.01069311 1.46403246 0 0 Z " fill="#6C6A69" transform="translate(203,244)"/>
<path d="M0 0 C0.66 0 1.32 0 2 0 C1.45387717 4.35657987 0.4145824 7.60825492 -1.66796875 11.46484375 C-2.22436035 12.50060547 -2.78075195 13.53636719 -3.35400391 14.60351562 C-3.95905762 15.70373047 -4.56411133 16.80394531 -5.1875 17.9375 C-5.81317871 19.08541016 -6.43885742 20.23332031 -7.08349609 21.41601562 C-29.67300168 62.62533182 -57.18398267 102.16603505 -89.61035156 136.26904297 C-92.52771662 139.33974662 -95.39039799 142.43093588 -98.14453125 145.64941406 C-102.32467273 150.43961627 -106.77450403 154.93642353 -111.265625 159.43359375 C-112.1396698 160.31096695 -113.0137146 161.18834015 -113.91424561 162.09230042 C-115.75515781 163.93824978 -117.59740477 165.7828689 -119.44091797 167.6262207 C-122.23303707 170.42052381 -125.01705688 173.22272768 -127.80078125 176.02539062 C-129.60107111 177.82861572 -131.40183709 179.63136563 -133.203125 181.43359375 C-134.02121643 182.2588707 -134.83930786 183.08414764 -135.68218994 183.93443298 C-140.70223127 188.93510599 -145.91846163 193.52003057 -151.46209717 197.93421936 C-154.02136992 200.01739451 -156.45311391 202.1969247 -158.875 204.4375 C-164.63586214 209.66561784 -170.75740904 214.37007837 -177 219 C-177.66 219.48984375 -178.32 219.9796875 -179 220.484375 C-204.11844229 239.04203012 -230.38983866 255.42073375 -258 270 C-258.86254395 270.45729492 -259.72508789 270.91458984 -260.61376953 271.38574219 C-285.70015977 284.58710458 -312.15016511 294.99333468 -339 304 C-340.0327002 304.34869141 -341.06540039 304.69738281 -342.12939453 305.05664062 C-380.93200705 318.00115751 -421.29209029 325.56107189 -462 329 C-463.26577881 329.10803955 -463.26577881 329.10803955 -464.55712891 329.21826172 C-501.20202216 332.18351709 -538.89078684 329.83871193 -574.625 321.125 C-575.99060059 320.79483887 -575.99060059 320.79483887 -577.38378906 320.45800781 C-585.93498266 318.25491554 -593.59030347 315.1536362 -602 312 C-602 291.21 -602 270.42 -602 249 C-598.5386255 249.86534362 -596.06138736 250.85572895 -592.9140625 252.44140625 C-562.5717003 267.51127526 -531.64601719 276.67222955 -498 281 C-497.1229541 281.11714355 -496.2459082 281.23428711 -495.34228516 281.35498047 C-414.41853202 291.69122755 -328.4574601 271.54848506 -255.35693359 237.10644531 C-252.88744167 235.94716031 -250.40735476 234.81285619 -247.92578125 233.6796875 C-235.45339197 227.9280502 -223.50470289 221.4247218 -211.63183594 214.52685547 C-209.26375882 213.15301927 -206.88775053 211.79454648 -204.5078125 210.44140625 C-177.80369101 195.14453806 -152.57864084 176.74668018 -129 157 C-128.49549316 156.58041016 -127.99098633 156.16082031 -127.47119141 155.72851562 C-119.9700339 149.48704233 -112.6776514 143.0618888 -105.53125 136.41796875 C-103.95495177 134.95828442 -102.3693396 133.50934125 -100.78125 132.0625 C-91.39327554 123.49300021 -82.06558516 114.79963532 -73.82421875 105.1015625 C-71.98395536 102.98151602 -70.07797348 100.93194985 -68.15869141 98.88354492 C-62.70028286 93.03822319 -57.68864475 86.95022933 -52.80859375 80.6171875 C-50.9412298 78.1949086 -49.03953197 75.80826318 -47.09765625 73.4453125 C-28.73351152 51.06088448 -12.76975291 25.98828309 0 0 Z " fill="#8C734B" transform="translate(851,267)"/>
<path d="M0 0 C3.00446472 0.64961399 6.00257943 1.31892929 9 2 C10.06782715 2.2371875 11.1356543 2.474375 12.23583984 2.71875 C28.24431312 6.44071444 40.14415271 9.93627563 49.27734375 24.43359375 C49.96352783 25.5935083 49.96352783 25.5935083 50.66357422 26.77685547 C52.2924785 29.48653803 54.114837 32.00467177 55.99194336 34.5456543 C57.22009314 36.20948384 58.41538209 37.89199735 59.6015625 39.5859375 C62.2522671 43.36601499 64.93828828 47.12046814 67.625 50.875 C68.47147183 52.05981178 69.31783755 53.24469938 70.1640625 54.4296875 C70.76992187 55.27789062 71.37578125 56.12609375 72 57 C75.30677109 55.89774297 75.70292568 55.40184543 77.609375 52.66796875 C78.10961182 51.96124023 78.60984863 51.25451172 79.12524414 50.52636719 C79.66141357 49.75454102 80.19758301 48.98271484 80.75 48.1875 C81.90834086 46.54949596 83.06857332 44.91282833 84.23046875 43.27734375 C84.84067871 42.41737793 85.45088867 41.55741211 86.07958984 40.67138672 C89.9503178 35.28701025 93.96950152 30.01276869 97.97363281 24.72729492 C98.57143555 23.93556885 99.16923828 23.14384277 99.78515625 22.328125 C100.30988525 21.6362207 100.83461426 20.94431641 101.37524414 20.23144531 C103.12379604 17.92955471 103.12379604 17.92955471 104.69091797 14.91650391 C107.75730673 11.04347788 110.51610799 10.29325813 115.16015625 9.0078125 C115.94643906 8.77214569 116.73272186 8.53647888 117.54283142 8.29367065 C120.04381756 7.55005245 122.55257509 6.83778689 125.0625 6.125 C126.7538266 5.62432199 128.44458994 5.12173709 130.13476562 4.6171875 C142.39668264 1 142.39668264 1 146 1 C144.75358389 5.07056001 143.26020682 8.57744611 141.09375 12.23828125 C140.51898926 13.21603516 139.94422852 14.19378906 139.35205078 15.20117188 C138.43528564 16.7412793 138.43528564 16.7412793 137.5 18.3125 C136.56583252 19.89708008 136.56583252 19.89708008 135.61279297 21.51367188 C134.34935177 23.65584535 133.0835791 25.79664553 131.81542969 27.93603516 C129.68197943 31.53673455 127.56194561 35.14518185 125.44335938 38.75463867 C123.6326097 41.83861364 121.81653264 44.91942851 120 48 C122.68134657 50.81401836 125.3789165 53.08781311 128.60546875 55.25 C129.49919189 55.85303955 130.39291504 56.4560791 131.3137207 57.07739258 C132.26206787 57.71185303 133.21041504 58.34631348 134.1875 59 C136.16473951 60.33623835 138.14129352 61.67349156 140.1171875 63.01171875 C141.10299805 63.67864746 142.08880859 64.34557617 143.10449219 65.03271484 C147.36368427 67.92652343 151.59606353 70.85681796 155.8125 73.8125 C156.52881592 74.30943359 157.24513184 74.80636719 157.9831543 75.31835938 C162.8826325 78.76526501 162.8826325 78.76526501 164 81 C160.39632458 81.5863927 156.79204613 82.16898385 153.1875 82.75 C152.08140381 82.92829346 150.97530762 83.10658691 149.83569336 83.2902832 C140.0741577 84.85188266 130.29773291 86.30122179 120.51049805 87.69238281 C119.42551025 87.84932617 118.34052246 88.00626953 117.22265625 88.16796875 C116.26109619 88.30485107 115.29953613 88.4417334 114.30883789 88.58276367 C111.98301825 88.89139615 111.98301825 88.89139615 110 90 C110.13631836 91.97407837 110.13631836 91.97407837 110.27539062 93.98803711 C110.6139291 98.90237943 110.94842305 103.81699033 111.28173828 108.73168945 C111.42615413 110.85285783 111.57164534 112.97395329 111.71826172 115.0949707 C111.92963524 118.15557298 112.13705329 121.21642249 112.34375 124.27734375 C112.40937134 125.21521225 112.47499268 126.15308075 112.54260254 127.11936951 C112.91899595 132.76101065 113.0605547 138.34570518 113 144 C108.43948499 141.16490239 104.83407478 138.05243872 101.125 134.1875 C97.1768392 130.1515481 93.17054939 126.30897355 88.8671875 122.6484375 C86.07789796 120.18592665 83.50762909 117.51763113 80.8984375 114.8671875 C78.39067887 112.40070885 75.74551069 110.19640856 73 108 C69.85387907 109.40162043 67.65010321 111.06796197 65.171875 113.44921875 C64.45386719 114.13306641 63.73585938 114.81691406 62.99609375 115.52148438 C62.25488281 116.23626953 61.51367188 116.95105469 60.75 117.6875 C55.8685747 122.36517131 50.95632699 126.96550104 45.84375 131.39038086 C42.2546467 134.52371747 38.80094561 137.80580153 35.3203125 141.05859375 C33 143 33 143 31 143 C31.72013693 124.62409215 33.41712083 106.3170241 35 88 C34.32752731 87.94671036 33.65505463 87.89342072 32.96220398 87.83851624 C26.42236915 87.28705727 19.99079382 86.45443672 13.51953125 85.37109375 C12.58066574 85.21713638 11.64180023 85.06317902 10.67448425 84.90455627 C7.71987229 84.41919986 4.7661866 83.9284529 1.8125 83.4375 C-0.2089252 83.10445833 -2.23040913 82.77177292 -4.25195312 82.43945312 C-9.16865614 81.6304119 -14.08453703 80.81654005 -19 80 C-19 79.34 -19 78.68 -19 78 C-17.09838867 76.51049805 -17.09838867 76.51049805 -14.41796875 74.76171875 C-13.43135254 74.11203125 -12.44473633 73.46234375 -11.42822266 72.79296875 C-10.35878418 72.09816406 -9.2893457 71.40335937 -8.1875 70.6875 C-5.9901176 69.24465825 -3.79351356 67.80063047 -1.59765625 66.35546875 C-1.04325867 65.99158051 -0.48886108 65.62769226 0.08233643 65.2527771 C6.22403884 61.21375366 12.26518344 57.03005382 18.28442383 52.8112793 C19.01298584 52.30636963 19.74154785 51.80145996 20.4921875 51.28125 C21.44134033 50.61706055 21.44134033 50.61706055 22.40966797 49.93945312 C24 49 24 49 26 49 C19.07834697 36.0951946 12.10960032 23.23360249 4.69628906 10.6027832 C3.98811035 9.38401489 3.98811035 9.38401489 3.265625 8.140625 C2.64349121 7.08149902 2.64349121 7.08149902 2.00878906 6.00097656 C1.0026519 4.00526017 0.44926121 2.18265053 0 0 Z " fill="#8D744B" transform="translate(132,112)"/>
<path d="M0 0 C3.3 0 6.6 0 10 0 C10.0093457 0.94842773 10.01869141 1.89685547 10.02832031 2.87402344 C10.07239231 6.40064758 10.13402783 9.92606203 10.20751953 13.45214844 C10.23570535 14.97677431 10.25693189 16.50154566 10.27099609 18.02636719 C10.29246049 20.22145936 10.33912169 22.41480711 10.390625 24.609375 C10.41157227 25.92905273 10.43251953 27.24873047 10.45410156 28.60839844 C10.74497392 32.52598023 10.74497392 32.52598023 15 36 C19.29 36.33 23.58 36.66 28 37 C28 24.79 28 12.58 28 0 C31.3 0 34.6 0 38 0 C38 15.51 38 31.02 38 47 C31.998125 47.0928125 31.998125 47.0928125 25.875 47.1875 C23.99917236 47.22846802 23.99917236 47.22846802 22.08544922 47.27026367 C16.22543654 47.3141642 12.10917208 47.19113862 7 44 C3.94881861 43.73795129 3.94881861 43.73795129 1.5625 45.5 C-3.60836807 47.67720761 -8.46101815 47.59264826 -14 47 C-17.5625 45.5 -17.5625 45.5 -20 44 C-23.04542649 43.7330035 -23.04542649 43.7330035 -25.375 45.5 C-30.83809352 47.76059042 -36.1622598 47.59568778 -42 47 C-44.02813371 46.05836649 -46.04072167 45.07760308 -48 44 C-50.7004039 44.64663567 -50.7004039 44.64663567 -53 46 C-55.88357137 46.96119046 -57.74458421 47.13692153 -60.7434082 47.16113281 C-61.70483231 47.17074036 -62.66625641 47.1803479 -63.65681458 47.19024658 C-65.21307808 47.1966214 -65.21307808 47.1966214 -66.80078125 47.203125 C-68.40447823 47.21167511 -68.40447823 47.21167511 -70.04057312 47.22039795 C-72.30430105 47.22984816 -74.56804273 47.23638201 -76.83178711 47.24023438 C-80.28849408 47.24993265 -83.74460465 47.28095343 -87.20117188 47.3125 C-89.40103814 47.31903091 -91.60090865 47.32428104 -93.80078125 47.328125 C-94.83221756 47.3404718 -95.86365387 47.3528186 -96.92634583 47.36553955 C-102.50140659 47.34830643 -106.07213381 46.86049251 -111 44 C-113.7004039 44.64663567 -113.7004039 44.64663567 -116 46 C-121.72334029 47.9077801 -127.94446322 47.9343349 -133.4375 45.4375 C-134.283125 44.963125 -135.12875 44.48875 -136 44 C-138.3494944 44.20730833 -139.63086704 44.76192783 -141.60009766 46.03198242 C-145.1011689 47.44416426 -148.55455043 47.30518388 -152.2734375 47.30078125 C-153.47548325 47.30720894 -153.47548325 47.30720894 -154.70181274 47.31376648 C-156.39462338 47.31950053 -158.08745866 47.32001685 -159.78027344 47.31567383 C-162.359156 47.31251938 -164.93688463 47.33596427 -167.515625 47.36132812 C-169.16406106 47.3636019 -170.81250019 47.36430425 -172.4609375 47.36328125 C-173.2267514 47.372491 -173.99256531 47.38170074 -174.78158569 47.39118958 C-179.64188874 47.34957059 -182.67473509 46.40774406 -187 44 C-190.08267496 43.7656168 -190.08267496 43.7656168 -192.77894592 45.4747467 C-196.33913559 47.16058957 -198.62251646 47.38517429 -202.53686523 47.40405273 C-203.81516708 47.41673691 -205.09346893 47.42942108 -206.4105072 47.44248962 C-207.79320438 47.44043791 -209.17590043 47.43744966 -210.55859375 47.43359375 C-211.99056749 47.43816013 -213.42253904 47.44346705 -214.85450745 47.44947815 C-217.84946621 47.45839113 -220.84415807 47.45600717 -223.83911133 47.44604492 C-227.66345945 47.43455887 -231.48688368 47.45476912 -235.3111105 47.48396206 C-238.26668581 47.50237244 -241.22204169 47.50202206 -244.17765999 47.49632454 C-245.58696857 47.49617191 -246.99629257 47.50216815 -248.40554619 47.51461601 C-261.94559893 47.61737538 -261.94559893 47.61737538 -268 43 C-268.70125 43.66 -269.4025 44.32 -270.125 45 C-275.25703268 48.53761476 -282.06880536 47.29249727 -288 47 C-288.08636719 47.58007812 -288.17273438 48.16015625 -288.26171875 48.7578125 C-289.30865629 54.57840104 -290.74819753 57.85190003 -295 62 C-298.28519475 63.09506492 -300.73663415 63.09960608 -304.1875 63.0625 C-305.81751953 63.04896484 -305.81751953 63.04896484 -307.48046875 63.03515625 C-308.31191406 63.02355469 -309.14335938 63.01195312 -310 63 C-310 59.37 -310 55.74 -310 52 C-306.7 52 -303.4 52 -300 52 C-299.9906543 51.29504395 -299.98130859 50.59008789 -299.97167969 49.86376953 C-299.91743138 46.61684848 -299.83389276 43.37128512 -299.75 40.125 C-299.72873047 38.46210937 -299.72873047 38.46210937 -299.70703125 36.765625 C-299.48299395 29.14835695 -298.78664389 21.1528672 -293.41723633 15.26416016 C-288.97170136 11.44002892 -283.71906017 10.70418654 -278 11 C-273.46684023 11.82923654 -270.19545598 13.41066629 -267.125 16.875 C-263.78530166 21.78632109 -262.66006049 26.23557292 -261.66015625 32.01171875 C-261.10116884 34.37662763 -261.10116884 34.37662763 -258 36 C-255.33279037 36.30437302 -255.33279037 36.30437302 -252.29101562 36.25878906 C-251.11970093 36.26509338 -249.94838623 36.27139771 -248.74157715 36.27789307 C-247.47591919 36.2738446 -246.21026123 36.26979614 -244.90625 36.265625 C-243.60804321 36.26753845 -242.30983643 36.2694519 -240.97229004 36.27142334 C-238.22513062 36.2743711 -235.47810132 36.27008825 -232.73095703 36.26074219 C-229.21016329 36.2493477 -225.68967447 36.25590905 -222.16889191 36.26788712 C-218.81048683 36.27685297 -215.45216374 36.27057503 -212.09375 36.265625 C-210.82809204 36.26967346 -209.56243408 36.27372192 -208.25842285 36.27789307 C-207.08710815 36.27158875 -205.91579346 36.26528442 -204.70898438 36.25878906 C-203.16035706 36.25640228 -203.16035706 36.25640228 -201.58044434 36.25396729 C-198.76153643 36.18085613 -198.76153643 36.18085613 -196 34 C-194.81304447 30.43913342 -194.64904582 27.02668976 -194.4375 23.3125 C-194.37272461 22.2596582 -194.37272461 22.2596582 -194.30664062 21.18554688 C-194.2008264 19.45724794 -194.09993419 17.7286489 -194 16 C-190.7 16 -187.4 16 -184 16 C-183.97421875 17.10859375 -183.9484375 18.2171875 -183.921875 19.359375 C-183.86558344 20.82295547 -183.80823633 22.28649562 -183.75 23.75 C-183.73582031 24.47960937 -183.72164062 25.20921875 -183.70703125 25.9609375 C-183.55883702 29.22121048 -183.33892255 31.51872997 -181.4375 34.21875 C-178.1427989 36.62641619 -175.31098994 36.5060524 -171.390625 36.390625 C-170.66381531 36.38496521 -169.93700562 36.37930542 -169.18817139 36.37347412 C-166.87476755 36.35114553 -164.5629328 36.30096048 -162.25 36.25 C-160.67840784 36.22993023 -159.10679132 36.21168029 -157.53515625 36.1953125 C-153.68950283 36.15129293 -149.84501711 36.08229375 -146 36 C-145.51188843 34.45082886 -145.51188843 34.45082886 -145.01391602 32.87036133 C-144.57347414 31.50329074 -144.13261552 30.13635437 -143.69140625 28.76953125 C-143.47859009 28.0902356 -143.26577393 27.41093994 -143.04650879 26.71105957 C-141.08122269 20.67207118 -138.68797312 16.27969647 -133.1484375 12.85546875 C-128.42792257 10.97584553 -122.74052621 11.19366268 -117.90234375 12.6171875 C-112.99284814 15.05575016 -110.13617382 19.03529564 -108 24 C-107.36479106 26.6332298 -106.89571789 29.21178344 -106.5546875 31.8984375 C-106.14805804 34.38008426 -106.14805804 34.38008426 -103 36 C-100.36 36.33 -97.72 36.66 -95 37 C-95 28.75 -95 20.5 -95 12 C-91.7 12 -88.4 12 -85 12 C-84.67 13.98 -84.34 15.96 -84 18 C-83.52949219 17.65066406 -83.05898438 17.30132813 -82.57421875 16.94140625 C-81.95160156 16.48636719 -81.32898438 16.03132812 -80.6875 15.5625 C-80.07261719 15.11003906 -79.45773437 14.65757812 -78.82421875 14.19140625 C-73.36088712 10.62327746 -66.22977351 11.40827125 -60 12 C-54.22836518 13.80879583 -48.90683681 16.53514681 -46 22 C-45.1592843 25.10482134 -44.43496682 28.20026029 -43.80859375 31.35546875 C-43.20778097 34.31900263 -43.20778097 34.31900263 -40 36 C-38.04785375 36.31478577 -38.04785375 36.31478577 -36 36.25 C-35.319375 36.25515625 -34.63875 36.2603125 -33.9375 36.265625 C-31.67583993 36.09917603 -31.67583993 36.09917603 -29 34 C-27.81304447 30.43913342 -27.64904582 27.02668976 -27.4375 23.3125 C-27.39431641 22.61060547 -27.35113281 21.90871094 -27.30664062 21.18554688 C-27.2008264 19.45724794 -27.09993419 17.7286489 -27 16 C-23.7 16 -20.4 16 -17 16 C-16.97421875 17.10859375 -16.9484375 18.2171875 -16.921875 19.359375 C-16.86558344 20.82295547 -16.80823633 22.28649562 -16.75 23.75 C-16.73582031 24.47960937 -16.72164062 25.20921875 -16.70703125 25.9609375 C-16.54772285 29.46572236 -16.27038045 31.63061515 -14.17578125 34.4921875 C-11.03407783 36.66938233 -8.72996323 36.40690508 -5 36 C-1.75150023 34.27773504 -1.75150023 34.27773504 -1 31 C-0.84820986 28.6444552 -0.75100711 26.28524877 -0.68359375 23.92578125 C-0.6524221 22.90003242 -0.6524221 22.90003242 -0.62062073 21.8535614 C-0.55533846 19.6733079 -0.49633983 17.49293595 -0.4375 15.3125 C-0.39429447 13.83267014 -0.35067953 12.35285217 -0.30664062 10.87304688 C-0.19967917 7.24882378 -0.09835177 3.62446811 0 0 Z M-285.75 22.875 C-288.88572796 27.23017772 -288.45420399 30.80188762 -288 36 C-284.40735548 37.19754817 -281.77282526 37.33094958 -278 37 C-275.41666667 35.58333333 -275.41666667 35.58333333 -274 33 C-273.24988633 29.54271642 -273.24988633 29.54271642 -274 26 C-276.10501871 22.97769298 -276.10501871 22.97769298 -279 21 C-283.00391206 20.62444212 -283.00391206 20.62444212 -285.75 22.875 Z M-130.25 24 C-132.39646321 27.67965122 -133.15266756 30.83394882 -134 35 C-130.29436769 37.47042154 -127.29636774 37.545708 -123 37 C-120.47959573 36.04826062 -120.47959573 36.04826062 -119 34 C-117.79637416 30.30888074 -117.65581709 28.70401049 -119.375 25.1875 C-120.81940721 23.13193917 -120.81940721 23.13193917 -122 22 C-125.76777974 21.49762937 -127.3548607 21.42654284 -130.25 24 Z M-82.80078125 30.0859375 C-84.22690544 32.36216178 -84.53121259 34.37468282 -85 37 C-80.56262288 37.08690253 -76.12546366 37.14035926 -71.6875 37.1875 C-69.79354492 37.22520508 -69.79354492 37.22520508 -67.86132812 37.26367188 C-66.04858398 37.27817383 -66.04858398 37.27817383 -64.19921875 37.29296875 C-62.52605591 37.31653442 -62.52605591 37.31653442 -60.8190918 37.34057617 C-58.00494121 37.23063136 -58.00494121 37.23063136 -56.13989258 35.66137695 C-54.32134761 33.01087395 -54.56188452 31.12939627 -55 28 C-57.15090451 24.66238955 -58.20412799 23.26529067 -62 22 C-71.28328511 21.16913799 -76.66440322 23.03151866 -82.80078125 30.0859375 Z " fill="#6C6A69" transform="translate(935,646)"/>
<path d="M0 0 C3.3 0 6.6 0 10 0 C10.495 8.91 10.495 8.91 11 18 C13.31 16.35 15.62 14.7 18 13 C25.24357776 10.58547408 33.73072013 10.90989154 40.625 14.1875 C45.43481665 17.0371786 48.27925353 19.33823334 49.7890625 24.9140625 C50.29435153 27.05260898 50.76352177 29.20010035 51.19140625 31.35546875 C51.79221903 34.31900263 51.79221903 34.31900263 55 36 C56.95214625 36.31478577 56.95214625 36.31478577 59 36.25 C59.680625 36.25515625 60.36125 36.2603125 61.0625 36.265625 C63.32416007 36.09917603 63.32416007 36.09917603 66 34 C67.18695553 30.43913342 67.35095418 27.02668976 67.5625 23.3125 C67.62727539 22.2596582 67.62727539 22.2596582 67.69335938 21.18554688 C67.7991736 19.45724794 67.90006581 17.7286489 68 16 C71.3 16 74.6 16 78 16 C78.03867187 17.66289063 78.03867187 17.66289063 78.078125 19.359375 C78.13441656 20.82295547 78.19176367 22.28649562 78.25 23.75 C78.26417969 24.47960937 78.27835938 25.20921875 78.29296875 25.9609375 C78.53575125 31.3021524 78.95576164 31.95576164 83 36 C87.29 36.33 91.58 36.66 96 37 C96 24.79 96 12.58 96 0 C99.3 0 102.6 0 106 0 C106 15.51 106 31.02 106 47 C99.998125 47.0928125 99.998125 47.0928125 93.875 47.1875 C91.99917236 47.22846802 91.99917236 47.22846802 90.08544922 47.27026367 C84.22543654 47.3141642 80.10917208 47.19113862 75 44 C71.95457351 43.7330035 71.95457351 43.7330035 69.625 45.5 C64.16190648 47.76059042 58.8377402 47.59568778 53 47 C50.97186629 46.05836649 48.95927833 45.07760308 47 44 C44.2995961 44.64663567 44.2995961 44.64663567 42 46 C38.44277137 47.18574288 35.62223456 47.11990193 31.86645508 47.11352539 C31.14425278 47.11367142 30.42205048 47.11381744 29.67796326 47.1139679 C27.29178866 47.11327145 24.90569221 47.1054916 22.51953125 47.09765625 C20.8647211 47.09579112 19.20991039 47.09436766 17.55509949 47.09336853 C13.20018997 47.08955085 8.84531382 47.07972695 4.49041748 47.06866455 C0.04635062 47.05843433 -4.39772163 47.05386745 -8.84179688 47.04882812 C-17.56121323 47.03810402 -26.28060246 47.02103657 -35 47 C-35.13954102 48.11076904 -35.27908203 49.22153809 -35.42285156 50.3659668 C-35.98730878 53.92008934 -36.40145186 55.22788646 -38.75 57.8125 C-39.23984375 58.37582031 -39.7296875 58.93914063 -40.234375 59.51953125 C-44.80378062 63.35095764 -49.5919106 63.25791807 -55.3125 63.125 C-56.05306641 63.11597656 -56.79363281 63.10695313 -57.55664062 63.09765625 C-59.37123467 63.07424213 -61.18566071 63.03837615 -63 63 C-63 59.7 -63 56.4 -63 53 C-61.77023437 52.90912109 -61.77023437 52.90912109 -60.515625 52.81640625 C-59.43796875 52.73261719 -58.3603125 52.64882813 -57.25 52.5625 C-56.18265625 52.48128906 -55.1153125 52.40007813 -54.015625 52.31640625 C-51.56320038 52.05909227 -49.36078709 51.68187782 -47 51 C-46.67 49.68 -46.34 48.36 -46 47 C-46.6290625 47.04640625 -47.258125 47.0928125 -47.90625 47.140625 C-54.21273918 47.40656129 -58.82446669 46.76088754 -64 43 C-67.34501983 39.81307812 -69.73441495 36.68138747 -70.203125 31.94921875 C-70.30878583 26.85108367 -69.96124966 23.34316617 -67 19 C-60.87369533 13.00983544 -55.59322155 11.77026546 -47.28173828 11.81982422 C-46.24001465 11.83803223 -45.19829102 11.85624023 -44.125 11.875 C-40.78375 11.91625 -37.4425 11.9575 -34 12 C-34 20.25 -34 28.5 -34 37 C-22.78 37 -11.56 37 0 37 C0 24.79 0 12.58 0 0 Z M-59 26 C-60.24401278 28.38608611 -60.24401278 28.38608611 -60 31 C-58.22336478 33.69558448 -56.90715555 35.54642223 -54 37 C-50.99525503 37.13559318 -48.00931153 37.04299016 -45 37 C-45 32.05 -45 27.1 -45 22 C-52.89997116 21.39365447 -52.89997116 21.39365447 -59 26 Z M12.19921875 30.0859375 C10.77309456 32.36216178 10.46878741 34.37468282 10 37 C14.43737712 37.08690253 18.87453634 37.14035926 23.3125 37.1875 C25.20645508 37.22520508 25.20645508 37.22520508 27.13867188 37.26367188 C28.95141602 37.27817383 28.95141602 37.27817383 30.80078125 37.29296875 C32.47394409 37.31653442 32.47394409 37.31653442 34.1809082 37.34057617 C36.99505879 37.23063136 36.99505879 37.23063136 38.86010742 35.66137695 C40.67865239 33.01087395 40.43811548 31.12939627 40 28 C37.84909549 24.66238955 36.79587201 23.26529067 33 22 C23.71671489 21.16913799 18.33559678 23.03151866 12.19921875 30.0859375 Z " fill="#6C6A69" transform="translate(442,646)"/>
<path d="M0 0 C2.19972305 3.29958457 3.04948329 6.08421542 4.1706543 9.88647461 C4.37737762 10.5827446 4.58410095 11.27901459 4.79708862 11.99638367 C5.47829577 14.29678887 6.15168512 16.599389 6.82421875 18.90234375 C7.29441578 20.5027799 7.76478045 22.10316681 8.23530579 23.70350647 C9.21987694 27.05737612 10.20019408 30.41245639 11.17797852 33.76831055 C12.43205716 38.06999968 13.69999241 42.367466 14.97157574 46.66400814 C15.9469406 49.96739873 16.91321448 53.27339687 17.87693214 56.5802021 C18.34062433 58.16597715 18.80754798 59.75081098 19.2777462 61.33466911 C19.93385488 63.54851003 20.5772284 65.76567468 21.2175293 67.98413086 C21.58678024 69.24527206 21.95603119 70.50641327 22.33647156 71.80577087 C23.29328985 76.41189876 22.62733798 78.03317665 20.1015625 81.92578125 C19.28244788 83.05934431 18.45649225 84.18798472 17.625 85.3125 C16.96975342 86.21379639 16.96975342 86.21379639 16.30126953 87.13330078 C14.87371058 89.09347818 13.43713598 91.04683589 12 93 C10.96313948 94.41767468 9.92668439 95.83564598 8.890625 97.25390625 C6.26745315 100.84114622 3.63584626 104.4220642 1 108 C-4.18131336 103.01195055 -8.41161467 97.42108027 -12.71582031 91.67675781 C-13.92645846 90.09602345 -15.19223658 88.55796147 -16.4609375 87.0234375 C-17.19570312 86.10820312 -17.93046875 85.19296875 -18.6875 84.25 C-19.35136719 83.45078125 -20.01523438 82.6515625 -20.69921875 81.828125 C-24.40240566 73.77675165 -18.95423056 62.19205591 -16.5625 54.0625 C-16.11736478 52.53092296 -15.67279391 50.99918179 -15.22875977 49.46728516 C-14.30193105 46.27550285 -13.37021316 43.08520551 -12.43457031 39.89599609 C-11.23339956 35.80122607 -10.04175959 31.70375937 -8.85334778 27.60527039 C-7.938157 24.45104476 -7.0194834 21.29784282 -6.09957886 18.14498901 C-5.65866047 16.63326594 -5.21849356 15.12132349 -4.77908325 13.60916138 C-4.16725314 11.50667687 -3.55110033 9.40551073 -2.93359375 7.3046875 C-2.58353271 6.10827637 -2.23347168 4.91186523 -1.87280273 3.67919922 C-1 1 -1 1 0 0 Z " fill="#8D744B" transform="translate(205,43)"/>
<path d="M0 0 C3.3 0 6.6 0 10 0 C10 15.51 10 31.02 10 47 C3.998125 47.0928125 3.998125 47.0928125 -2.125 47.1875 C-4.00082764 47.22846802 -4.00082764 47.22846802 -5.91455078 47.27026367 C-11.80017897 47.3143561 -15.8437945 47.14485922 -21 44 C-23.7004039 44.64663567 -23.7004039 44.64663567 -26 46 C-31.72334029 47.9077801 -37.94446322 47.9343349 -43.4375 45.4375 C-44.283125 44.963125 -45.12875 44.48875 -46 44 C-48.35071864 44.20741635 -49.62495889 44.75455002 -51.58691406 46.03857422 C-55.16160702 47.46280943 -58.69625036 47.24489275 -62.484375 47.1953125 C-63.29996887 47.1924826 -64.11556274 47.18965271 -64.95587158 47.18673706 C-67.55406528 47.17556558 -70.15191095 47.15046675 -72.75 47.125 C-74.51431793 47.11496627 -76.27864128 47.10584111 -78.04296875 47.09765625 C-82.36211273 47.07563619 -86.68099741 47.04112733 -91 47 C-90.97421875 48.09699219 -90.9484375 49.19398438 -90.921875 50.32421875 C-91.00693878 54.32646942 -91.5286022 55.91075275 -94 59 C-97.23745626 61.071972 -99.82347011 61.24385691 -103.625 61.1875 C-104.58664062 61.18105469 -105.54828125 61.17460938 -106.5390625 61.16796875 C-109 61 -109 61 -111 60 C-110.67 57.03 -110.34 54.06 -110 51 C-107.36 51 -104.72 51 -102 51 C-101.67 39.45 -101.34 27.9 -101 16 C-97.7 16 -94.4 16 -91 16 C-91 22.93 -91 29.86 -91 37 C-73.675 36.505 -73.675 36.505 -56 36 C-54.35 31.05 -52.7 26.1 -51 21 C-48.05936434 16.85910488 -45.71800116 13.87862228 -41 12 C-35.17465996 11.23280361 -29.46509572 11.20919095 -24.49609375 14.6171875 C-19.25487598 19.46155066 -17.43597162 24.95563821 -16.5546875 31.8984375 C-16.14805804 34.38008426 -16.14805804 34.38008426 -13 36 C-8.71 36.33 -4.42 36.66 0 37 C0 24.79 0 12.58 0 0 Z M-40.25 24 C-42.39646321 27.67965122 -43.15266756 30.83394882 -44 35 C-40.29436769 37.47042154 -37.29636774 37.545708 -33 37 C-30.47959573 36.04826062 -30.47959573 36.04826062 -29 34 C-27.79637416 30.30888074 -27.65581709 28.70401049 -29.375 25.1875 C-30.81940721 23.13193917 -30.81940721 23.13193917 -32 22 C-35.76777974 21.49762937 -37.3548607 21.42654284 -40.25 24 Z " fill="#6C6A69" transform="translate(1488,646)"/>
<path d="M0 0 C0.495 4.455 0.495 4.455 1 9 C-1.39531933 9.64779076 -3.79121748 10.29329009 -6.1875 10.9375 C-6.86103516 11.11990234 -7.53457031 11.30230469 -8.22851562 11.49023438 C-11.80148458 12.4488358 -15.36156738 13.32883282 -19 14 C-19 14.66 -19 15.32 -19 16 C-18.01 16.04125 -17.02 16.0825 -16 16.125 C-10.96857691 16.89042948 -7.45832484 19.33912685 -4 23 C1.27031528 30.91285432 0 38.33995874 0 48 C-30.69 48 -61.38 48 -93 48 C-93 50.31 -93 52.62 -93 55 C-94.69678138 58.8177581 -96.13982589 60.49359059 -100 62 C-102.7265625 62.23046875 -102.7265625 62.23046875 -105.625 62.1875 C-106.58664062 62.18105469 -107.54828125 62.17460938 -108.5390625 62.16796875 C-111 62 -111 62 -113 61 C-112.67 58.03 -112.34 55.06 -112 52 C-109.36 52 -106.72 52 -104 52 C-103.67 40.45 -103.34 28.9 -103 17 C-99.7 17 -96.4 17 -93 17 C-93 23.93 -93 30.86 -93 38 C-65.94 38 -38.88 38 -11 38 C-12.96579962 29.55525984 -12.96579962 29.55525984 -16.296875 27.0078125 C-19.29941164 25.88836965 -22.07499698 25.30511125 -25.25 24.875 C-30.9121813 24.0878187 -30.9121813 24.0878187 -32 23 C-32.23427778 20.98405418 -32.41336124 18.961526 -32.5625 16.9375 C-32.64628906 15.83277344 -32.73007813 14.72804688 -32.81640625 13.58984375 C-32.87699219 12.73519531 -32.93757813 11.88054688 -33 11 C-24.40112942 4.76893436 -11.10053807 -3.58081873 0 0 Z " fill="#6C6A69" transform="translate(1373,645)"/>
<path d="M0 0 C3.3 0 6.6 0 10 0 C10 10.23 10 20.46 10 31 C-12.77 31.33 -35.54 31.66 -59 32 C-59.33 34.97 -59.66 37.94 -60 41 C-63.03164449 46.11590008 -66.02913383 47.69882035 -71.4453125 49.39794922 C-75.79801644 50.42372979 -80.04735327 50.43333162 -84.5 50.375 C-85.38558594 50.38660156 -86.27117188 50.39820313 -87.18359375 50.41015625 C-94.50993335 50.37788163 -101.16738356 49.40156611 -106.875 44.5625 C-107.57625 43.716875 -108.2775 42.87125 -109 42 C-109.5775 41.319375 -110.155 40.63875 -110.75 39.9375 C-113.97017992 34.94622113 -113.35464572 28.71556939 -113 23 C-112 19.3125 -112 19.3125 -111 17 C-107.7 17 -104.4 17 -101 17 C-101.10699219 17.78503906 -101.21398437 18.57007813 -101.32421875 19.37890625 C-102.06329021 25.85571532 -102.57108147 30.40530569 -99 36 C-94.38821343 39.86736433 -89.58838172 39.4149638 -83.875 39.3125 C-82.96878906 39.31572266 -82.06257812 39.31894531 -81.12890625 39.32226562 C-75.75196659 39.37425901 -75.75196659 39.37425901 -71 37 C-70.74969023 34.41619823 -70.74969023 34.41619823 -71 32 C-75.64144669 30.23945126 -80.27775484 28.53472968 -85 27 C-84.67 24.36 -84.34 21.72 -84 19 C-80.50193626 18.1265967 -78.16357787 17.9852249 -74.69189453 18.91162109 C-67.5032107 20.48931776 -60.25169511 20.35702484 -52.9296875 20.4140625 C-51.39697264 20.43280868 -49.86426772 20.45238456 -48.33157349 20.4727478 C-44.330301 20.52371119 -40.32899518 20.5635265 -36.32757568 20.60089111 C-32.23132324 20.64115739 -28.13520512 20.69214558 -24.0390625 20.7421875 C-16.02612743 20.83852204 -8.01313519 20.92206724 0 21 C0 14.07 0 7.14 0 0 Z " fill="#6C6A69" transform="translate(1105,662)"/>
<path d="M0 0 C3.3 0 6.6 0 10 0 C10 6.93 10 13.86 10 21 C31.78 21 53.56 21 76 21 C76 14.07 76 7.14 76 0 C79.3 0 82.6 0 86 0 C86 10.23 86 20.46 86 31 C60.92 31 35.84 31 10 31 C10 33.31 10 35.62 10 38 C8.30321862 41.8177581 6.86017411 43.49359059 3 45 C0.2734375 45.23046875 0.2734375 45.23046875 -2.625 45.1875 C-3.58664062 45.18105469 -4.54828125 45.17460938 -5.5390625 45.16796875 C-8 45 -8 45 -10 44 C-9.67 41.03 -9.34 38.06 -9 35 C-6.36 35 -3.72 35 -1 35 C-0.67 23.45 -0.34 11.9 0 0 Z " fill="#6C6A69" transform="translate(275,662)"/>
<path d="M0 0 C0.93457031 0.00322266 1.86914062 0.00644531 2.83203125 0.00976562 C3.80011719 0.01814453 4.76820313 0.02652344 5.765625 0.03515625 C6.74917969 0.03966797 7.73273437 0.04417969 8.74609375 0.04882812 C11.16933291 0.06059142 13.59244773 0.07702941 16.015625 0.09765625 C16.09023971 5.07809234 16.14444487 10.05819714 16.18041992 15.0390625 C16.19543005 16.73052647 16.21584463 18.42195203 16.24194336 20.11328125 C16.27867186 22.55608649 16.29542911 24.99837355 16.30859375 27.44140625 C16.32407761 28.18757202 16.33956146 28.93373779 16.35551453 29.70251465 C16.35741624 35.74641956 15.28545662 41.37901701 11.296875 46.15625 C10.7090625 46.61128906 10.12125 47.06632813 9.515625 47.53515625 C8.9278125 48.00824219 8.34 48.48132813 7.734375 48.96875 C3.6799836 51.63174799 -0.52353051 51.21293221 -5.171875 51.16015625 C-5.92146484 51.15564453 -6.67105469 51.15113281 -7.44335938 51.14648438 C-9.29039883 51.13471979 -11.13739713 51.1167849 -12.984375 51.09765625 C-12.984375 47.79765625 -12.984375 44.49765625 -12.984375 41.09765625 C-12.09234375 41.071875 -11.2003125 41.04609375 -10.28125 41.01953125 C-9.11078125 40.9628125 -7.9403125 40.90609375 -6.734375 40.84765625 C-5.57421875 40.80125 -4.4140625 40.75484375 -3.21875 40.70703125 C0.5170262 40.00318936 1.78100351 39.12877649 4.015625 36.09765625 C4.015625 35.10765625 4.015625 34.11765625 4.015625 33.09765625 C3.45617187 33.41992188 2.89671875 33.7421875 2.3203125 34.07421875 C-1.68630108 35.85342682 -5.6890991 35.62776942 -9.984375 35.09765625 C-14.84697404 32.93650112 -17.18986183 30.0587596 -19.2890625 25.3046875 C-20.99165449 19.90039269 -20.67373791 15.03376476 -18.421875 9.84765625 C-15.90831545 5.36618531 -12.14269687 2.06417472 -7.18457031 0.546875 C-4.73179723 0.04608689 -2.50290769 -0.01526163 0 0 Z M-8.984375 14.09765625 C-9.34833477 17.9556298 -9.54445035 20.25754323 -7.359375 23.53515625 C-4.2473088 25.58256822 -2.64043004 25.78316657 1.015625 25.09765625 C3.61871383 23.30634176 3.61871383 23.30634176 5.015625 20.09765625 C5.33386203 16.73563605 5.25087832 13.46308566 5.015625 10.09765625 C-0.72932453 9.80554017 -4.66254693 9.77582818 -8.984375 14.09765625 Z " fill="#6C6A69" transform="translate(589.984375,657.90234375)"/>
<path d="M0 0 C3.63 0 7.26 0 11 0 C13.97 5.61 16.94 11.22 20 17 C23.12943259 13.08820926 25.12096866 10.0907239 27.25 5.6875 C27.77078125 4.61886719 28.2915625 3.55023437 28.828125 2.44921875 C29.40820312 1.23685547 29.40820312 1.23685547 30 0 C33.63 0 37.26 0 41 0 C41 14.19 41 28.38 41 43 C38.03 43 35.06 43 32 43 C31.505 31.12 31.505 31.12 31 19 C27.7 24.94 24.4 30.88 21 37 C18.60581384 34.60581384 17.44187623 33.2737626 15.95703125 30.42578125 C15.63968018 29.82419189 15.3223291 29.22260254 14.99536133 28.6027832 C14.60501709 27.84698975 14.21467285 27.09119629 13.8125 26.3125 C11.9253125 22.6928125 11.9253125 22.6928125 10 19 C9.67 26.92 9.34 34.84 9 43 C6.03 43 3.06 43 0 43 C0 28.81 0 14.62 0 0 Z " fill="#6C6A69" transform="translate(1100,746)"/>
<path d="M0 0 C3.07365786 1.80803404 4.43019732 2.86039464 6 6 C6.5927189 10.29721201 6.91078305 12.65659501 4.4375 16.3046875 C2.68993077 18.28479618 0.90557401 20.17220452 -1 22 C0.65 23.32 2.3 24.64 4 26 C4.33 24.02 4.66 22.04 5 20 C8.96 20 12.92 20 17 20 C17 22.64 17 25.28 17 28 C15.35 28 13.7 28 12 28 C10.78918149 31.10540926 10.78918149 31.10540926 11 35 C12.87886131 37.42240433 14.92497524 39.36387165 17.21484375 41.3984375 C17.80394531 41.92695312 18.39304687 42.45546875 19 43 C19 43.33 19 43.66 19 44 C16.91673869 44.02709444 14.83337559 44.04643873 12.75 44.0625 C11.00976562 44.07990234 11.00976562 44.07990234 9.234375 44.09765625 C6 44 6 44 3.828125 43.37109375 C1.31798153 42.86155608 0.2602871 43.85752761 -2 45 C-13.85501453 46.31722384 -13.85501453 46.31722384 -18.6875 43.1875 C-22.02252989 40.032742 -23.34216887 37.83994931 -23.5625 33.3125 C-23.5058615 27.80238313 -21.31769405 25.19990713 -17.53125 21.3984375 C-17.0259375 20.93695312 -16.520625 20.47546875 -16 20 C-16.495 19.360625 -16.99 18.72125 -17.5 18.0625 C-19.50312761 13.97278113 -19.8922654 10.47755 -19 6 C-13.63247375 -0.78003316 -8.23458582 -0.82345858 0 0 Z M-7 7 C-7.99 7.66 -8.98 8.32 -10 9 C-9.72965366 11.43717258 -9.72965366 11.43717258 -9 14 C-7.515 14.99 -7.515 14.99 -6 16 C-4.3516367 14.24755753 -4.3516367 14.24755753 -3 12 C-2.9853761 9.8064655 -2.9853761 9.8064655 -4 8 C-4.99 7.67 -5.98 7.34 -7 7 Z M-11 26 C-13.3721969 27.94458314 -13.3721969 27.94458314 -13.3125 31.5 C-13.209375 32.655 -13.10625 33.81 -13 35 C-9.54754176 37.30163882 -8.05261287 37.34490322 -4 37 C-3.34 36.34 -2.68 35.68 -2 35 C-3.12104533 33.68412059 -4.24696965 32.37239647 -5.375 31.0625 C-6.00148438 30.33160156 -6.62796875 29.60070312 -7.2734375 28.84765625 C-8.87747714 26.91619094 -8.87747714 26.91619094 -11 26 Z " fill="#6C6A69" transform="translate(793,745)"/>
<path d="M0 0 C4.351875 -0.0825 8.70375 -0.165 13.1875 -0.25 C14.55156982 -0.28641602 15.91563965 -0.32283203 17.32104492 -0.36035156 C18.40490479 -0.3703418 19.48876465 -0.38033203 20.60546875 -0.390625 C22.26292114 -0.4220459 22.26292114 -0.4220459 23.95385742 -0.45410156 C27.69280284 0.1032791 29.31666801 1.3939058 32 4 C33.23184766 6.46369532 33.16732342 8.1894501 33.1875 10.9375 C33.20167969 11.81277344 33.21585938 12.68804688 33.23046875 13.58984375 C33 16 33 16 31 19 C30.34 19 29.68 19 29 19 C29 19.66 29 20.32 29 21 C29.61875 21.268125 30.2375 21.53625 30.875 21.8125 C33 23 33 23 35 26 C35.77286121 30.7180481 35.42364132 34.19654232 33.1875 38.4375 C31 41 31 41 28 43 C25.08911133 43.22705078 25.08911133 43.22705078 21.58203125 43.1953125 C20.4525708 43.19031738 19.32311035 43.18532227 18.15942383 43.18017578 C16.72493896 43.16196777 15.2904541 43.14375977 13.8125 43.125 C6.9753125 43.063125 6.9753125 43.063125 0 43 C0 28.81 0 14.62 0 0 Z M10 8 C10 10.97 10 13.94 10 17 C11.79133978 17.05391993 13.58313899 17.09275571 15.375 17.125 C16.37273437 17.14820313 17.37046875 17.17140625 18.3984375 17.1953125 C21.16262173 17.27216848 21.16262173 17.27216848 23 15 C23.41666667 12.5 23.41666667 12.5 23 10 C19.68629 7.79086 18.6553979 7.77518447 14.8125 7.875 C13.46091797 7.90207031 13.46091797 7.90207031 12.08203125 7.9296875 C11.05142578 7.96449219 11.05142578 7.96449219 10 8 Z M10 25 C10 28.3 10 31.6 10 35 C11.93681161 35.08107583 13.8745934 35.13922475 15.8125 35.1875 C16.89144531 35.22230469 17.97039062 35.25710938 19.08203125 35.29296875 C21.98144889 35.24005087 21.98144889 35.24005087 23.8984375 33.68359375 C25.3057581 31.89810605 25.3057581 31.89810605 24.8125 28.875 C24.4103125 27.451875 24.4103125 27.451875 24 26 C21.23547967 24.61773984 18.9538637 24.90474613 15.875 24.9375 C14.77929688 24.94652344 13.68359375 24.95554687 12.5546875 24.96484375 C11.29011719 24.98224609 11.29011719 24.98224609 10 25 Z " fill="#6C6A69" transform="translate(1280,746)"/>
<path d="M0 0 C3.3 0 6.6 0 10 0 C10 15.51 10 31.02 10 47 C-4.19 47 -18.38 47 -33 47 C-33 43.7 -33 40.4 -33 37 C-26.565 36.505 -26.565 36.505 -20 36 C-22.97 26.1 -25.94 16.2 -29 6 C-25.04 6 -21.08 6 -17 6 C-14.03 15.9 -11.06 25.8 -8 36 C-5.36 36.33 -2.72 36.66 0 37 C0 24.79 0 12.58 0 0 Z " fill="#6C6A69" transform="translate(1218,646)"/>
<path d="M0 0 C3.63 0 7.26 0 11 0 C13.58927965 2.88093818 14.8494016 4.68813977 16.4375 8.0625 C16.83130859 8.81466797 17.22511719 9.56683594 17.63085938 10.34179688 C18.37441528 11.76602088 19.10078231 13.19947425 19.80249023 14.64477539 C21.41931643 17.82469839 23.2300952 20.90266659 25 24 C25.33 16.08 25.66 8.16 26 0 C28.97 0 31.94 0 35 0 C35 14.19 35 28.38 35 43 C31.37 43 27.74 43 24 43 C21.41072035 40.11906182 20.1505984 38.31186023 18.5625 34.9375 C18.16869141 34.18533203 17.77488281 33.43316406 17.36914062 32.65820312 C16.62558472 31.23397912 15.89921769 29.80052575 15.19750977 28.35522461 C13.58068357 25.17530161 11.7699048 22.09733341 10 19 C9.67 26.92 9.34 34.84 9 43 C6.03 43 3.06 43 0 43 C0 28.81 0 14.62 0 0 Z " fill="#6C6A69" transform="translate(1187,746)"/>
<path d="M0 0 C3.63 0 7.26 0 11 0 C13.58927965 2.88093818 14.8494016 4.68813977 16.4375 8.0625 C16.83130859 8.81466797 17.22511719 9.56683594 17.63085938 10.34179688 C18.37441528 11.76602088 19.10078231 13.19947425 19.80249023 14.64477539 C21.41931643 17.82469839 23.2300952 20.90266659 25 24 C25.33 16.08 25.66 8.16 26 0 C28.97 0 31.94 0 35 0 C35 14.19 35 28.38 35 43 C31.37 43 27.74 43 24 43 C21.41072035 40.11906182 20.1505984 38.31186023 18.5625 34.9375 C18.16869141 34.18533203 17.77488281 33.43316406 17.36914062 32.65820312 C16.62558472 31.23397912 15.89921769 29.80052575 15.19750977 28.35522461 C13.58068357 25.17530161 11.7699048 22.09733341 10 19 C9.67 26.92 9.34 34.84 9 43 C6.03 43 3.06 43 0 43 C0 28.81 0 14.62 0 0 Z " fill="#6C6A69" transform="translate(714,746)"/>
<path d="M0 0 C3.63 0 7.26 0 11 0 C13.58927965 2.88093818 14.8494016 4.68813977 16.4375 8.0625 C16.83130859 8.81466797 17.22511719 9.56683594 17.63085938 10.34179688 C18.37441528 11.76602088 19.10078231 13.19947425 19.80249023 14.64477539 C21.41931643 17.82469839 23.2300952 20.90266659 25 24 C25.33 16.08 25.66 8.16 26 0 C28.97 0 31.94 0 35 0 C35 14.19 35 28.38 35 43 C31.37 43 27.74 43 24 43 C21.41072035 40.11906182 20.1505984 38.31186023 18.5625 34.9375 C18.16869141 34.18533203 17.77488281 33.43316406 17.36914062 32.65820312 C16.62558472 31.23397912 15.89921769 29.80052575 15.19750977 28.35522461 C13.58068357 25.17530161 11.7699048 22.09733341 10 19 C9.67 26.92 9.34 34.84 9 43 C6.03 43 3.06 43 0 43 C0 28.81 0 14.62 0 0 Z " fill="#6C6A69" transform="translate(468,746)"/>
<path d="M0 0 C6.5278125 -0.0928125 6.5278125 -0.0928125 13.1875 -0.1875 C14.55156982 -0.21481201 15.91563965 -0.24212402 17.32104492 -0.27026367 C18.40490479 -0.27775635 19.48876465 -0.28524902 20.60546875 -0.29296875 C21.71043701 -0.3086792 22.81540527 -0.32438965 23.95385742 -0.34057617 C27.40656084 0.04545583 29.22879833 0.93970768 32 3 C35.29887356 7.77767895 35.78119315 12.36499338 35 18 C33.50219509 21.28090599 31.66484004 23.58895425 29 26 C30.76321123 31.93080141 33.40367805 37.39741053 36 43 C32.04 43 28.08 43 24 43 C22.82845707 40.71070947 21.66261926 38.41881638 20.5 36.125 C20.16613281 35.47402344 19.83226562 34.82304688 19.48828125 34.15234375 C17 29.2265625 17 29.2265625 17 27 C14.69 27 12.38 27 10 27 C10 32.28 10 37.56 10 43 C6.7 43 3.4 43 0 43 C0 28.81 0 14.62 0 0 Z M10 9 C10 12.3 10 15.6 10 19 C11.7492214 19.08142927 13.49954542 19.13938541 15.25 19.1875 C16.22453125 19.22230469 17.1990625 19.25710938 18.203125 19.29296875 C21.37468742 18.96075202 22.67040307 18.11327721 25 16 C24.72459296 12.18186553 24.72459296 12.18186553 23 9 C20.81360547 8.92741054 18.62499611 8.91626217 16.4375 8.9375 C15.23996094 8.94652344 14.04242187 8.95554687 12.80859375 8.96484375 C11.41833984 8.98224609 11.41833984 8.98224609 10 9 Z " fill="#6C6A69" transform="translate(1363,746)"/>
<path d="M0 0 C6.5278125 -0.0928125 6.5278125 -0.0928125 13.1875 -0.1875 C14.55156982 -0.21481201 15.91563965 -0.24212402 17.32104492 -0.27026367 C18.40490479 -0.27775635 19.48876465 -0.28524902 20.60546875 -0.29296875 C21.71043701 -0.3086792 22.81540527 -0.32438965 23.95385742 -0.34057617 C27.40656084 0.04545583 29.22879833 0.93970768 32 3 C35.29887356 7.77767895 35.78119315 12.36499338 35 18 C33.50219509 21.28090599 31.66484004 23.58895425 29 26 C30.76321123 31.93080141 33.40367805 37.39741053 36 43 C32.04 43 28.08 43 24 43 C22.82845707 40.71070947 21.66261926 38.41881638 20.5 36.125 C20.16613281 35.47402344 19.83226562 34.82304688 19.48828125 34.15234375 C17 29.2265625 17 29.2265625 17 27 C14.69 27 12.38 27 10 27 C10 32.28 10 37.56 10 43 C6.7 43 3.4 43 0 43 C0 28.81 0 14.62 0 0 Z M10 9 C10 12.3 10 15.6 10 19 C11.7492214 19.08142927 13.49954542 19.13938541 15.25 19.1875 C16.22453125 19.22230469 17.1990625 19.25710938 18.203125 19.29296875 C21.37468742 18.96075202 22.67040307 18.11327721 25 16 C24.72459296 12.18186553 24.72459296 12.18186553 23 9 C20.81360547 8.92741054 18.62499611 8.91626217 16.4375 8.9375 C15.23996094 8.94652344 14.04242188 8.95554687 12.80859375 8.96484375 C11.41833984 8.98224609 11.41833984 8.98224609 10 9 Z " fill="#6C6A69" transform="translate(344,746)"/>
<path d="M0 0 C3.795 -0.103125 7.59 -0.20625 11.5 -0.3125 C12.68013672 -0.35802002 13.86027344 -0.40354004 15.07617188 -0.45043945 C21.98611627 -0.54083795 26.74201081 0.32661224 32 5 C37.30605769 12.0176892 36.49498449 20.60326302 36 29 C34.9095038 34.19488347 31.99846804 37.58667362 28 41 C24.71572778 43.04313315 22.19747381 43.23614334 18.359375 43.1953125 C17.39483398 43.19031738 16.43029297 43.18532227 15.43652344 43.18017578 C14.2199707 43.16196777 13.00341797 43.14375977 11.75 43.125 C5.93375 43.063125 5.93375 43.063125 0 43 C0 28.81 0 14.62 0 0 Z M10 9 C10 17.25 10 25.5 10 34 C20.02301402 35.04168298 20.02301402 35.04168298 23.625 32.1875 C26.78752044 27.15621748 26.47605191 21.75366193 26 16 C24.48130027 11.63063511 24.48130027 11.63063511 21 9 C17.37 9 13.74 9 10 9 Z " fill="#6C6A69" transform="translate(829,746)"/>
<path d="M0 0 C3.795 -0.103125 7.59 -0.20625 11.5 -0.3125 C12.68013672 -0.35802002 13.86027344 -0.40354004 15.07617188 -0.45043945 C21.98611627 -0.54083795 26.74201081 0.32661224 32 5 C37.30605769 12.0176892 36.49498449 20.60326302 36 29 C34.9095038 34.19488347 31.99846804 37.58667362 28 41 C24.71572778 43.04313315 22.19747381 43.23614334 18.359375 43.1953125 C17.39483398 43.19031738 16.43029297 43.18532227 15.43652344 43.18017578 C14.2199707 43.16196777 13.00341797 43.14375977 11.75 43.125 C5.93375 43.063125 5.93375 43.063125 0 43 C0 28.81 0 14.62 0 0 Z M10 9 C10 17.25 10 25.5 10 34 C20.02301402 35.04168298 20.02301402 35.04168298 23.625 32.1875 C26.78752044 27.15621748 26.47605191 21.75366193 26 16 C24.48130027 11.63063511 24.48130027 11.63063511 21 9 C17.37 9 13.74 9 10 9 Z " fill="#6C6A69" transform="translate(525,746)"/>
<path d="M0 0 C3.795 -0.103125 7.59 -0.20625 11.5 -0.3125 C12.68013672 -0.35802002 13.86027344 -0.40354004 15.07617188 -0.45043945 C21.98611627 -0.54083795 26.74201081 0.32661224 32 5 C37.30605769 12.0176892 36.49498449 20.60326302 36 29 C34.9095038 34.19488347 31.99846804 37.58667362 28 41 C24.71572778 43.04313315 22.19747381 43.23614334 18.359375 43.1953125 C17.39483398 43.19031738 16.43029297 43.18532227 15.43652344 43.18017578 C14.2199707 43.16196777 13.00341797 43.14375977 11.75 43.125 C5.93375 43.063125 5.93375 43.063125 0 43 C0 28.81 0 14.62 0 0 Z M10 9 C10 17.25 10 25.5 10 34 C20.02301402 35.04168298 20.02301402 35.04168298 23.625 32.1875 C26.78752044 27.15621748 26.47605191 21.75366193 26 16 C24.48130027 11.63063511 24.48130027 11.63063511 21 9 C17.37 9 13.74 9 10 9 Z " fill="#6C6A69" transform="translate(385,746)"/>
<path d="M0 0 C4.26725586 2.24054175 6.4227996 5.25490855 8.73046875 9.31640625 C6.09046875 10.96640625 3.45046875 12.61640625 0.73046875 14.31640625 C-0.09453125 13.49140625 -0.91953125 12.66640625 -1.76953125 11.81640625 C-4.34215684 9.66542238 -6.09700401 8.91577859 -9.45703125 8.81640625 C-13.11204664 9.01895063 -13.11204664 9.01895063 -15.20703125 10.56640625 C-18.20511886 15.50443291 -17.73586478 21.75256483 -17.26953125 27.31640625 C-15.75083152 31.68577114 -15.75083152 31.68577114 -12.26953125 34.31640625 C-8.23676026 34.64186982 -8.23676026 34.64186982 -4.26953125 34.31640625 C-1.86880679 32.07056724 -1.31199607 30.44380072 -0.26953125 27.31640625 C-2.90953125 27.31640625 -5.54953125 27.31640625 -8.26953125 27.31640625 C-8.26953125 24.67640625 -8.26953125 22.03640625 -8.26953125 19.31640625 C-2.65953125 19.31640625 2.95046875 19.31640625 8.73046875 19.31640625 C8.73046875 27.23640625 8.73046875 35.15640625 8.73046875 43.31640625 C6.09046875 43.31640625 3.45046875 43.31640625 0.73046875 43.31640625 C0.40046875 42.65640625 0.07046875 41.99640625 -0.26953125 41.31640625 C-0.86765625 41.81140625 -1.46578125 42.30640625 -2.08203125 42.81640625 C-6.79073981 45.0322691 -11.15050583 44.99392432 -16.26953125 44.31640625 C-21.39507122 41.80023208 -24.77315838 38.26609091 -27.35546875 33.17578125 C-29.60465852 26.13985429 -29.79518794 15.40595682 -26.64453125 8.56640625 C-20.77249454 -0.73272662 -10.33980828 -3.11440008 0 0 Z " fill="#6C6A69" transform="translate(696.26953125,745.68359375)"/>
<path d="M0 0 C4.67872294 3.42345581 7.83418278 7.34591438 9.5625 12.875 C11.00764462 29.76302721 11.00764462 29.76302721 6.83984375 36.36328125 C3.89122351 39.85293272 0.97090896 42.40553035 -3.4375 43.875 C-16.04464597 44.82099075 -16.04464597 44.82099075 -21.4375 40.875 C-27.96095858 34.05502057 -28.83997035 28.37225636 -28.80322266 19.26269531 C-28.64963143 12.72168161 -27.58451487 8.12061586 -22.94140625 3.33203125 C-16.55284219 -2.35554324 -7.92540069 -2.5937675 0 0 Z M-15.875 10.1875 C-19.01661063 15.59107028 -18.94349741 20.76813474 -18.4375 26.875 C-17.10542442 30.32628672 -16.02753919 32.28496081 -13.4375 34.875 C-10.43159759 35.21437608 -8.33528255 35.44881833 -5.4375 34.875 C-2.14562385 31.75193801 -0.6064055 28.94409241 -0.234375 24.38671875 C-0.1412112 18.7735996 -0.21790896 14.70438657 -3.4375 9.875 C-5.42864614 7.46831253 -5.42864614 7.46831253 -9.3125 7.4375 C-12.75957166 7.51257234 -13.2278415 7.67609322 -15.875 10.1875 Z " fill="#6C6A69" transform="translate(1042.4375,746.125)"/>
<path d="M0 0 C4.67872294 3.42345581 7.83418278 7.34591438 9.5625 12.875 C11.00764462 29.76302721 11.00764462 29.76302721 6.83984375 36.36328125 C3.89122351 39.85293272 0.97090896 42.40553035 -3.4375 43.875 C-16.04464597 44.82099075 -16.04464597 44.82099075 -21.4375 40.875 C-27.96095858 34.05502057 -28.83997035 28.37225636 -28.80322266 19.26269531 C-28.64963143 12.72168161 -27.58451487 8.12061586 -22.94140625 3.33203125 C-16.55284219 -2.35554324 -7.92540069 -2.5937675 0 0 Z M-15.875 10.1875 C-19.01661063 15.59107028 -18.94349741 20.76813474 -18.4375 26.875 C-17.10542442 30.32628672 -16.02753919 32.28496081 -13.4375 34.875 C-10.43159759 35.21437608 -8.33528255 35.44881833 -5.4375 34.875 C-2.14562385 31.75193801 -0.6064055 28.94409241 -0.234375 24.38671875 C-0.1412112 18.7735996 -0.21790896 14.70438657 -3.4375 9.875 C-5.42864614 7.46831253 -5.42864614 7.46831253 -9.3125 7.4375 C-12.75957166 7.51257234 -13.2278415 7.67609322 -15.875 10.1875 Z " fill="#6C6A69" transform="translate(327.4375,746.125)"/>
<path d="M0 0 C9.9 0 19.8 0 30 0 C30 2.97 30 5.94 30 9 C23.4 9 16.8 9 10 9 C10 11.64 10 14.28 10 17 C15.94 17 21.88 17 28 17 C28 19.97 28 22.94 28 26 C22.06 26 16.12 26 10 26 C10 28.64 10 31.28 10 34 C16.6 34 23.2 34 30 34 C30 36.97 30 39.94 30 43 C20.1 43 10.2 43 0 43 C0 28.81 0 14.62 0 0 Z " fill="#6C6A69" transform="translate(1404,746)"/>
<path d="M0 0 C9.9 0 19.8 0 30 0 C30 2.97 30 5.94 30 9 C23.4 9 16.8 9 10 9 C10 11.64 10 14.28 10 17 C15.94 17 21.88 17 28 17 C28 19.97 28 22.94 28 26 C22.06 26 16.12 26 10 26 C10 28.64 10 31.28 10 34 C16.6 34 23.2 34 30 34 C30 36.97 30 39.94 30 43 C20.1 43 10.2 43 0 43 C0 28.81 0 14.62 0 0 Z " fill="#6C6A69" transform="translate(1149,746)"/>
<path d="M0 0 C9.9 0 19.8 0 30 0 C30 2.97 30 5.94 30 9 C23.4 9 16.8 9 10 9 C10 11.64 10 14.28 10 17 C15.94 17 21.88 17 28 17 C28 19.97 28 22.94 28 26 C22.06 26 16.12 26 10 26 C10 28.64 10 31.28 10 34 C16.6 34 23.2 34 30 34 C30 36.97 30 39.94 30 43 C20.1 43 10.2 43 0 43 C0 28.81 0 14.62 0 0 Z " fill="#6C6A69" transform="translate(949,746)"/>
<path d="M0 0 C9.9 0 19.8 0 30 0 C30 2.97 30 5.94 30 9 C23.4 9 16.8 9 10 9 C10 11.64 10 14.28 10 17 C15.94 17 21.88 17 28 17 C28 19.97 28 22.94 28 26 C22.06 26 16.12 26 10 26 C10 28.64 10 31.28 10 34 C16.6 34 23.2 34 30 34 C30 36.97 30 39.94 30 43 C20.1 43 10.2 43 0 43 C0 28.81 0 14.62 0 0 Z " fill="#6C6A69" transform="translate(872,746)"/>
<path d="M0 0 C9.9 0 19.8 0 30 0 C30 2.97 30 5.94 30 9 C23.4 9 16.8 9 10 9 C10 11.64 10 14.28 10 17 C15.94 17 21.88 17 28 17 C28 19.97 28 22.94 28 26 C22.06 26 16.12 26 10 26 C10 28.64 10 31.28 10 34 C16.6 34 23.2 34 30 34 C30 36.97 30 39.94 30 43 C20.1 43 10.2 43 0 43 C0 28.81 0 14.62 0 0 Z " fill="#6C6A69" transform="translate(568,746)"/>
<path d="M0 0 C3.3 0 6.6 0 10 0 C10.01458252 0.85231201 10.02916504 1.70462402 10.04418945 2.58276367 C10.10543285 5.76071175 10.17962029 8.93802546 10.26245117 12.11547852 C10.29559806 13.48775958 10.32366171 14.86017362 10.34643555 16.23266602 C10.38016766 18.21137766 10.4340149 20.18971376 10.48828125 22.16796875 C10.51446533 23.35672607 10.54064941 24.5454834 10.56762695 25.77026367 C11.03871736 29.28921056 11.79041843 31.23330581 14 34 C17.5 34.83333333 17.5 34.83333333 21 34 C24.06245919 30.16538798 24.40557253 26.98700728 24.51171875 22.16796875 C24.54716797 20.87568359 24.58261719 19.58339844 24.61914062 18.25195312 C24.64223681 16.89714066 24.66501935 15.54232282 24.6875 14.1875 C24.72069761 12.81311883 24.75518953 11.43876829 24.79101562 10.06445312 C24.87341264 6.70971766 24.94259395 3.35524096 25 0 C28.3 0 31.6 0 35 0 C35.04987075 3.98352168 35.08593964 7.9669195 35.10986328 11.95068359 C35.12472879 13.96328119 35.150157 15.97579188 35.17578125 17.98828125 C35.2539504 33.54394272 35.2539504 33.54394272 31.125 39.875 C26.93922214 44.06077786 23.49230172 44.31644409 17.625 44.375 C16.33851562 44.40335938 15.05203125 44.43171875 13.7265625 44.4609375 C9.43252067 43.92980864 7.3403666 42.69208804 4 40 C-0.13867874 34.57690372 -0.12691871 28.68362758 -0.09765625 22.0703125 C-0.09443359 20.78125 -0.09121094 19.4921875 -0.08789062 18.1640625 C-0.07953733 16.81770764 -0.07107241 15.47135348 -0.0625 14.125 C-0.0574783 12.75520996 -0.05291657 11.38541815 -0.04882812 10.015625 C-0.03707254 6.6770381 -0.02063964 3.33854185 0 0 Z " fill="#6C6A69" transform="translate(1482,746)"/>
<path d="M0 0 C3.3 0 6.6 0 10 0 C10.01458252 0.85231201 10.02916504 1.70462402 10.04418945 2.58276367 C10.10543285 5.76071175 10.17962029 8.93802546 10.26245117 12.11547852 C10.29559806 13.48775958 10.32366171 14.86017362 10.34643555 16.23266602 C10.38016766 18.21137766 10.4340149 20.18971376 10.48828125 22.16796875 C10.51446533 23.35672607 10.54064941 24.5454834 10.56762695 25.77026367 C11.03871736 29.28921056 11.79041843 31.23330581 14 34 C17.5 34.83333333 17.5 34.83333333 21 34 C24.06245919 30.16538798 24.40557253 26.98700728 24.51171875 22.16796875 C24.54716797 20.87568359 24.58261719 19.58339844 24.61914062 18.25195312 C24.64223681 16.89714066 24.66501935 15.54232282 24.6875 14.1875 C24.72069761 12.81311883 24.75518953 11.43876829 24.79101562 10.06445312 C24.87341264 6.70971766 24.94259395 3.35524096 25 0 C28.3 0 31.6 0 35 0 C35.04987075 3.98352168 35.08593964 7.9669195 35.10986328 11.95068359 C35.12472879 13.96328119 35.150157 15.97579188 35.17578125 17.98828125 C35.2539504 33.54394272 35.2539504 33.54394272 31.125 39.875 C26.93922214 44.06077786 23.49230172 44.31644409 17.625 44.375 C16.33851562 44.40335938 15.05203125 44.43171875 13.7265625 44.4609375 C9.43252067 43.92980864 7.3403666 42.69208804 4 40 C-0.13867874 34.57690372 -0.12691871 28.68362758 -0.09765625 22.0703125 C-0.09443359 20.78125 -0.09121094 19.4921875 -0.08789062 18.1640625 C-0.07953733 16.81770764 -0.07107241 15.47135348 -0.0625 14.125 C-0.0574783 12.75520996 -0.05291657 11.38541815 -0.04882812 10.015625 C-0.03707254 6.6770381 -0.02063964 3.33854185 0 0 Z " fill="#6C6A69" transform="translate(1321,746)"/>
<path d="M0 0 C1.8997207 1.18859531 3.6269627 2.4020124 5.31640625 3.87109375 C3.63488552 7.61129873 1.62601152 9.43243723 -1.68359375 11.87109375 C-2.15796875 11.37609375 -2.63234375 10.88109375 -3.12109375 10.37109375 C-6.88717726 8.16655706 -10.41818754 8.62501262 -14.68359375 8.87109375 C-15.01359375 10.19109375 -15.34359375 11.51109375 -15.68359375 12.87109375 C-12.54454091 14.96379565 -10.52106281 15.43523531 -6.87109375 16.18359375 C-1.47854975 17.46970897 1.55711336 18.80699333 5.31640625 22.87109375 C6.88481477 27.5763193 6.86536164 31.39758191 5.12890625 36.05859375 C2.52636026 40.09702718 -0.12478711 42.35149154 -4.68359375 43.87109375 C-11.7126738 44.45765173 -17.89817039 44.53474833 -24.1953125 41.13671875 C-25.68359375 39.87109375 -25.68359375 39.87109375 -27.68359375 35.87109375 C-25.37359375 33.89109375 -23.06359375 31.91109375 -20.68359375 29.87109375 C-19.44609375 30.86109375 -19.44609375 30.86109375 -18.18359375 31.87109375 C-14.33866894 34.48343501 -11.22704311 34.18443509 -6.68359375 33.87109375 C-6.02359375 32.22109375 -5.36359375 30.57109375 -4.68359375 28.87109375 C-7.97524453 26.6766599 -10.20154494 26.27792894 -14.05859375 25.55859375 C-19.54107354 24.35586711 -22.45445941 23.4841428 -25.68359375 18.87109375 C-27.24165997 14.19689508 -27.18052128 10.36187634 -25.62109375 5.68359375 C-19.98092527 -2.50374759 -8.91480584 -3.75018761 0 0 Z " fill="#6C6A69" transform="translate(630.68359375,746.12890625)"/>
<path d="M0 0 C6.5278125 -0.0928125 6.5278125 -0.0928125 13.1875 -0.1875 C14.55156982 -0.21481201 15.91563965 -0.24212402 17.32104492 -0.27026367 C18.40490479 -0.27775635 19.48876465 -0.28524902 20.60546875 -0.29296875 C21.71043701 -0.3086792 22.81540527 -0.32438965 23.95385742 -0.34057617 C27.40656084 0.04545583 29.22879833 0.93970768 32 3 C35.31598681 7.80246366 35.74998834 12.34468255 35 18 C33.4513551 22.18134123 31.89100853 24.75972236 28 27 C22.34934971 28.92306513 15.85096396 28.05417559 10 28 C10 32.95 10 37.9 10 43 C6.7 43 3.4 43 0 43 C0 28.81 0 14.62 0 0 Z M10 9 C10 12.3 10 15.6 10 19 C11.7492214 19.08142927 13.49954542 19.13938541 15.25 19.1875 C16.22453125 19.22230469 17.1990625 19.25710938 18.203125 19.29296875 C21.37468742 18.96075202 22.67040307 18.11327721 25 16 C24.72459296 12.18186553 24.72459296 12.18186553 23 9 C20.81360547 8.92741054 18.62499611 8.91626217 16.4375 8.9375 C15.23996094 8.94652344 14.04242187 8.95554687 12.80859375 8.96484375 C11.41833984 8.98224609 11.41833984 8.98224609 10 9 Z " fill="#6C6A69" transform="translate(1059,746)"/>
<path d="M0 0 C1.79244141 0.01740234 1.79244141 0.01740234 3.62109375 0.03515625 C5.41740234 0.04869141 5.41740234 0.04869141 7.25 0.0625 C8.17683594 0.07410156 9.10367187 0.08570313 10.05859375 0.09765625 C11.91562241 5.73750699 13.76688317 11.37920535 15.61279297 17.02270508 C16.24173818 18.94282253 16.87226442 20.86242285 17.50439453 22.78149414 C18.41202978 25.53788408 19.31398783 28.29607562 20.21484375 31.0546875 C20.49920288 31.91415482 20.78356201 32.77362213 21.07653809 33.65913391 C21.33680786 34.4597374 21.59707764 35.26034088 21.86523438 36.08520508 C22.09617798 36.78913895 22.32712158 37.49307281 22.56506348 38.21833801 C23.05859375 40.09765625 23.05859375 40.09765625 23.05859375 43.09765625 C19.75859375 43.09765625 16.45859375 43.09765625 13.05859375 43.09765625 C10.05859375 36.47265625 10.05859375 36.47265625 10.05859375 33.09765625 C5.43859375 33.09765625 0.81859375 33.09765625 -3.94140625 33.09765625 C-4.25078125 34.56203125 -4.56015625 36.02640625 -4.87890625 37.53515625 C-5.81640625 41.97265625 -5.81640625 41.97265625 -6.94140625 43.09765625 C-8.62749591 43.16971136 -10.31641284 43.18151693 -12.00390625 43.16015625 C-12.92300781 43.15113281 -13.84210938 43.14210938 -14.7890625 43.1328125 C-15.49933594 43.12121094 -16.20960937 43.10960937 -16.94140625 43.09765625 C-15.3967972 34.958399 -12.78619277 27.20830106 -10.14575195 19.37451172 C-9.37197942 17.07708967 -8.60642674 14.77704162 -7.84179688 12.4765625 C-7.35334241 11.01676711 -6.8644272 9.55712579 -6.375 8.09765625 C-6.14582382 7.40921631 -5.91664764 6.72077637 -5.68052673 6.01147461 C-3.68788779 0.12243983 -3.68788779 0.12243983 0 0 Z M2.05859375 11.09765625 C1.55166683 12.67878545 1.05332932 14.26267008 0.55859375 15.84765625 C0.28015625 16.729375 0.00171875 17.61109375 -0.28515625 18.51953125 C-1.1058591 21.30033154 -1.1058591 21.30033154 -0.94140625 25.09765625 C1.69859375 25.09765625 4.33859375 25.09765625 7.05859375 25.09765625 C6.77431958 23.51297897 6.48084557 21.92995055 6.18359375 20.34765625 C5.93996094 19.02507813 5.93996094 19.02507813 5.69140625 17.67578125 C5.09063111 15.22817881 4.27862258 13.29165768 3.05859375 11.09765625 C2.72859375 11.09765625 2.39859375 11.09765625 2.05859375 11.09765625 Z " fill="#6C6A69" transform="translate(1454.94140625,745.90234375)"/>
<path d="M0 0 C1.79244141 0.01740234 1.79244141 0.01740234 3.62109375 0.03515625 C5.41740234 0.04869141 5.41740234 0.04869141 7.25 0.0625 C8.17683594 0.07410156 9.10367187 0.08570313 10.05859375 0.09765625 C11.91562241 5.73750699 13.76688317 11.37920535 15.61279297 17.02270508 C16.24173818 18.94282253 16.87226442 20.86242285 17.50439453 22.78149414 C18.41202978 25.53788408 19.31398783 28.29607562 20.21484375 31.0546875 C20.49920288 31.91415482 20.78356201 32.77362213 21.07653809 33.65913391 C21.33680786 34.4597374 21.59707764 35.26034088 21.86523438 36.08520508 C22.09617798 36.78913895 22.32712158 37.49307281 22.56506348 38.21833801 C23.05859375 40.09765625 23.05859375 40.09765625 23.05859375 43.09765625 C19.75859375 43.09765625 16.45859375 43.09765625 13.05859375 43.09765625 C10.05859375 36.47265625 10.05859375 36.47265625 10.05859375 33.09765625 C5.43859375 33.09765625 0.81859375 33.09765625 -3.94140625 33.09765625 C-4.25078125 34.56203125 -4.56015625 36.02640625 -4.87890625 37.53515625 C-5.81640625 41.97265625 -5.81640625 41.97265625 -6.94140625 43.09765625 C-8.62749591 43.16971136 -10.31641284 43.18151693 -12.00390625 43.16015625 C-12.92300781 43.15113281 -13.84210938 43.14210938 -14.7890625 43.1328125 C-15.49933594 43.12121094 -16.20960938 43.10960937 -16.94140625 43.09765625 C-15.3967972 34.958399 -12.78619277 27.20830106 -10.14575195 19.37451172 C-9.37197942 17.07708967 -8.60642674 14.77704162 -7.84179688 12.4765625 C-7.35334241 11.01676711 -6.8644272 9.55712579 -6.375 8.09765625 C-6.14582382 7.40921631 -5.91664764 6.72077637 -5.68052673 6.01147461 C-3.68788779 0.12243983 -3.68788779 0.12243983 0 0 Z M2.05859375 11.09765625 C1.55166683 12.67878545 1.05332932 14.26267008 0.55859375 15.84765625 C0.28015625 16.729375 0.00171875 17.61109375 -0.28515625 18.51953125 C-1.1058591 21.30033154 -1.1058591 21.30033154 -0.94140625 25.09765625 C1.69859375 25.09765625 4.33859375 25.09765625 7.05859375 25.09765625 C6.77431958 23.51297897 6.48084557 21.92995055 6.18359375 20.34765625 C5.93996094 19.02507813 5.93996094 19.02507813 5.69140625 17.67578125 C5.09063111 15.22817881 4.27862258 13.29165768 3.05859375 11.09765625 C2.72859375 11.09765625 2.39859375 11.09765625 2.05859375 11.09765625 Z " fill="#6C6A69" transform="translate(438.94140625,745.90234375)"/>
<path d="M0 0 C3.3 0 6.6 0 10 0 C11.12880493 3.33208728 12.25313752 6.66557541 13.375 10 C13.69210937 10.93457031 14.00921875 11.86914062 14.3359375 12.83203125 C16.13224088 18.1835184 17.71637989 23.5024755 19 29 C21.42089794 21.83466132 23.69779029 14.62972907 25.92578125 7.40234375 C26.30669922 6.18224609 26.30669922 6.18224609 26.6953125 4.9375 C27.0358667 3.83728516 27.0358667 3.83728516 27.38330078 2.71484375 C28 1 28 1 29 0 C30.68608966 -0.07205511 32.37500659 -0.08386068 34.0625 -0.0625 C34.98160156 -0.05347656 35.90070312 -0.04445313 36.84765625 -0.03515625 C37.55792969 -0.02355469 38.26820313 -0.01195312 39 0 C34.9665255 14.55293813 30.01610096 28.76039312 25 43 C21.04 43 17.08 43 13 43 C11.14297134 37.36014926 9.29171058 31.7184509 7.44580078 26.07495117 C6.81685557 24.15483372 6.18632933 22.2352334 5.55419922 20.31616211 C4.64656397 17.55977217 3.74460592 14.80158063 2.84375 12.04296875 C2.4172113 10.75376778 2.4172113 10.75376778 1.98205566 9.43852234 C1.72178589 8.63791885 1.46151611 7.83731537 1.19335938 7.01245117 C0.84694397 5.95655037 0.84694397 5.95655037 0.49353027 4.87931824 C0 3 0 3 0 0 Z " fill="#6C6A69" transform="translate(906,746)"/>
<path d="M0 0 C8.05569354 -0.44823024 15.12553056 -0.6786577 22 4 C25.63085166 7.33645828 28.75027817 11.38033745 29.22705078 16.38183594 C29.21657715 17.24067383 29.20610352 18.09951172 29.1953125 18.984375 C29.19031738 19.82709961 29.18532227 20.66982422 29.18017578 21.53808594 C29.16196777 22.59801758 29.14375977 23.65794922 29.125 24.75 C29.08375 28.1325 29.0425 31.515 29 35 C18.11 35 7.22 35 -4 35 C-4 31.7 -4 28.4 -4 25 C3.59 25 11.18 25 19 25 C18.06317538 15.50847518 18.06317538 15.50847518 14 12 C10.99221479 10.99740493 8.46179353 10.69685358 5.3125 10.4375 C4.31863281 10.35371094 3.32476563 10.26992188 2.30078125 10.18359375 C1.54152344 10.12300781 0.78226563 10.06242188 0 10 C0 6.7 0 3.4 0 0 Z " fill="#6C6A69" transform="translate(1126,658)"/>
<path d="M0 0 C7.59 0 15.18 0 23 0 C23.09207371 5.01801728 23.17163196 10.03307904 23.21972656 15.05126953 C23.23978369 16.75644894 23.26703657 18.46156006 23.30175781 20.16650391 C23.35053861 22.62419524 23.37302719 25.08097366 23.390625 27.5390625 C23.41127014 28.29555084 23.43191528 29.05203918 23.45318604 29.83145142 C23.45535654 35.00616008 22.38058218 37.87264588 19 42 C14.41153375 45.29379527 8.37492253 44.57562758 3 44 C-2.01349878 41.71314091 -4.04136653 39.11420962 -6 34 C-6 33.01 -6 32.02 -6 31 C-2.7 30.67 0.6 30.34 4 30 C4.66 31.32 5.32 32.64 6 34 C7.66611905 34.042721 9.33382885 34.04063832 11 34 C12.74506615 32.25493385 12.23282784 29.80960857 12.31640625 27.43359375 C12.35830078 26.30888672 12.40019531 25.18417969 12.44335938 24.02539062 C12.48267578 22.84138672 12.52199219 21.65738281 12.5625 20.4375 C12.60568359 19.24962891 12.64886719 18.06175781 12.69335938 16.83789062 C12.79983453 13.89207803 12.90045681 10.94605498 13 8 C8.71 8 4.42 8 0 8 C0 5.36 0 2.72 0 0 Z " fill="#6C6A69" transform="translate(269,746)"/>
<path d="M0 0 C11.22 0 22.44 0 34 0 C34 2.97 34 5.94 34 9 C30.04 9 26.08 9 22 9 C22 20.22 22 31.44 22 43 C18.7 43 15.4 43 12 43 C12 31.78 12 20.56 12 9 C8.04 9 4.08 9 0 9 C0 6.03 0 3.06 0 0 Z " fill="#6C6A69" transform="translate(1227,746)"/>
<path d="M0 0 C6.93 0 13.86 0 21 0 C21 2.64 21 5.28 21 8 C19.02 8 17.04 8 15 8 C15 16.91 15 25.82 15 35 C16.98 35 18.96 35 21 35 C21 37.64 21 40.28 21 43 C14.07 43 7.14 43 0 43 C0 40.36 0 37.72 0 35 C1.65 35 3.3 35 5 35 C5 26.09 5 17.18 5 8 C3.35 8 1.7 8 0 8 C0 5.36 0 2.72 0 0 Z " fill="#6C6A69" transform="translate(642,746)"/>
<path d="M0 0 C3.3 0 6.6 0 10 0 C10 11.22 10 22.44 10 34 C15.61 34 21.22 34 27 34 C27 36.97 27 39.94 27 43 C18.09 43 9.18 43 0 43 C0 28.81 0 14.62 0 0 Z " fill="#6C6A69" transform="translate(986,746)"/>
<path d="M0 0 C3.3 0 6.6 0 10 0 C10.07429915 5.32020022 10.12867247 10.64009669 10.16479492 15.96069336 C10.17985755 17.76966617 10.20031177 19.5786026 10.22631836 21.38745117 C10.2628132 23.99146515 10.27975157 26.5949952 10.29296875 29.19921875 C10.30845261 30.00461594 10.32393646 30.81001312 10.33988953 31.63981628 C10.34126888 36.26870219 9.97088198 39.21995135 7 43 C3.87198124 45.21623457 1.14389149 45.24337305 -2.625 45.1875 C-3.58664062 45.18105469 -4.54828125 45.17460938 -5.5390625 45.16796875 C-8 45 -8 45 -10 44 C-9.67 41.03 -9.34 38.06 -9 35 C-6.36 35 -3.72 35 -1 35 C-0.67 23.45 -0.34 11.9 0 0 Z " fill="#6C6A69" transform="translate(1168,662)"/>
<path d="M0 0 C3.63 0 7.26 0 11 0 C11 15.51 11 31.02 11 47 C7.37 47 3.74 47 0 47 C0 31.49 0 15.98 0 0 Z " fill="#6C6A69" transform="translate(1504,646)"/>
<path d="M0 0 C3.63 0 7.26 0 11 0 C11 15.51 11 31.02 11 47 C7.37 47 3.74 47 0 47 C0 31.49 0 15.98 0 0 Z " fill="#6C6A69" transform="translate(1234,646)"/>
<path d="M0 0 C3.63 0 7.26 0 11 0 C11 15.51 11 31.02 11 47 C7.37 47 3.74 47 0 47 C0 31.49 0 15.98 0 0 Z " fill="#6C6A69" transform="translate(554,646)"/>
<path d="M0 0 C3.0625 0.3125 3.0625 0.3125 4.9375 1.8125 C5.30875 2.3075 5.68 2.8025 6.0625 3.3125 C6.43375 2.8175 6.805 2.3225 7.1875 1.8125 C9.0625 0.3125 9.0625 0.3125 12.0625 -0.0625 C15.0625 0.3125 15.0625 0.3125 17 1.375 C18.71037795 4.49392449 17.86763863 6.96807801 17.0625 10.3125 C14.26379973 11.71185013 12.15751208 11.56515405 9.0625 11.3125 C7.1875 9.8125 7.1875 9.8125 6.0625 8.3125 C5.69125 8.8075 5.32 9.3025 4.9375 9.8125 C3.0625 11.3125 3.0625 11.3125 0.0625 11.75 C-2.9375 11.3125 -2.9375 11.3125 -4.875 9.625 C-6.21983625 6.69800346 -5.96865662 5.32665011 -4.9375 2.3125 C-2.9375 0.3125 -2.9375 0.3125 0 0 Z " fill="#6C6A69" transform="translate(1012.9375,714.6875)"/>
<path d="M0 0 C0.33 0.99 0.66 1.98 1 3 C-1 6 -1 6 -3.625 6.6875 C-4.40875 6.790625 -5.1925 6.89375 -6 7 C-5.67 7.99 -5.34 8.98 -5 10 C-2.69 10.33 -0.38 10.66 2 11 C2 12.32 2 13.64 2 15 C-2.62 15 -7.24 15 -12 15 C-12.48263254 4.86471664 -12.48263254 4.86471664 -10.5 1.3125 C-6.85137482 -0.60302822 -4.09161038 -0.27277403 0 0 Z " fill="#6C6A69" transform="translate(1199,633)"/>
<path d="M0 0 C3.0625 0.3125 3.0625 0.3125 5 1.375 C6.71037795 4.49392449 5.86763863 6.96807801 5.0625 10.3125 C2.23366253 11.72691874 0.18873255 11.63150332 -2.9375 11.3125 C-4.875 9.625 -4.875 9.625 -5.9375 7.3125 C-5.61764525 2.8345335 -4.76027546 0.50641228 0 0 Z " fill="#6C6A69" transform="translate(751.9375,697.6875)"/>
<path d="M0 0 C3.0625 0.3125 3.0625 0.3125 5 1.375 C6.71037795 4.49392449 5.86763863 6.96807801 5.0625 10.3125 C2.23366253 11.72691874 0.18873255 11.63150332 -2.9375 11.3125 C-4.875 9.625 -4.875 9.625 -5.9375 7.3125 C-5.61764525 2.8345335 -4.76027546 0.50641228 0 0 Z " fill="#6C6A69" transform="translate(738.9375,697.6875)"/>
<path d="M0 0 C3.0625 0.3125 3.0625 0.3125 5 1.375 C6.71037795 4.49392449 5.86763863 6.96807801 5.0625 10.3125 C2.23366253 11.72691874 0.18873255 11.63150332 -2.9375 11.3125 C-4.875 9.625 -4.875 9.625 -5.9375 7.3125 C-5.61764525 2.8345335 -4.76027546 0.50641228 0 0 Z " fill="#6C6A69" transform="translate(361.9375,697.6875)"/>
<path d="M0 0 C3.0625 0.3125 3.0625 0.3125 5 1.375 C6.71037795 4.49392449 5.86763863 6.96807801 5.0625 10.3125 C2.23366253 11.72691874 0.18873255 11.63150332 -2.9375 11.3125 C-4.875 9.625 -4.875 9.625 -5.9375 7.3125 C-5.61764525 2.8345335 -4.76027546 0.50641228 0 0 Z " fill="#6C6A69" transform="translate(348.9375,697.6875)"/>
<path d="M0 0 C3.0625 0.3125 3.0625 0.3125 5 1.375 C6.71037795 4.49392449 5.86763863 6.96807801 5.0625 10.3125 C2.23366253 11.72691874 0.18873255 11.63150332 -2.9375 11.3125 C-4.875 9.625 -4.875 9.625 -5.9375 7.3125 C-5.61764525 2.8345335 -4.76027546 0.50641228 0 0 Z " fill="#6C6A69" transform="translate(1274.9375,644.6875)"/>
<path d="M0 0 C3.0625 0.3125 3.0625 0.3125 5 1.375 C6.71037795 4.49392449 5.86763863 6.96807801 5.0625 10.3125 C2.23366253 11.72691874 0.18873255 11.63150332 -2.9375 11.3125 C-4.875 9.625 -4.875 9.625 -5.9375 7.3125 C-5.61764525 2.8345335 -4.76027546 0.50641228 0 0 Z " fill="#6C6A69" transform="translate(1108.9375,644.6875)"/>
<path d="M0 0 C3.0625 0.3125 3.0625 0.3125 5 1.375 C6.71037795 4.49392449 5.86763863 6.96807801 5.0625 10.3125 C2.23366253 11.72691874 0.18873255 11.63150332 -2.9375 11.3125 C-4.875 9.625 -4.875 9.625 -5.9375 7.3125 C-5.61764525 2.8345335 -4.76027546 0.50641228 0 0 Z " fill="#6C6A69" transform="translate(918.9375,644.6875)"/>
<path d="M0 0 C3.0625 0.3125 3.0625 0.3125 5 1.375 C6.71037795 4.49392449 5.86763863 6.96807801 5.0625 10.3125 C2.23366253 11.72691874 0.18873255 11.63150332 -2.9375 11.3125 C-4.875 9.625 -4.875 9.625 -5.9375 7.3125 C-5.61764525 2.8345335 -4.76027546 0.50641228 0 0 Z " fill="#6C6A69" transform="translate(905.9375,644.6875)"/>
<path d="M0 0 C3.0625 0.3125 3.0625 0.3125 5 1.375 C6.71037795 4.49392449 5.86763863 6.96807801 5.0625 10.3125 C2.23366253 11.72691874 0.18873255 11.63150332 -2.9375 11.3125 C-4.875 9.625 -4.875 9.625 -5.9375 7.3125 C-5.61764525 2.8345335 -4.76027546 0.50641228 0 0 Z " fill="#6C6A69" transform="translate(520.9375,644.6875)"/>
<path d="M0 0 C3.0625 0.3125 3.0625 0.3125 5 1.375 C6.71037795 4.49392449 5.86763863 6.96807801 5.0625 10.3125 C2.23366253 11.72691874 0.18873255 11.63150332 -2.9375 11.3125 C-4.875 9.625 -4.875 9.625 -5.9375 7.3125 C-5.61764525 2.8345335 -4.76027546 0.50641228 0 0 Z " fill="#6C6A69" transform="translate(507.9375,644.6875)"/>
</svg>
