<?xml version="1.0" encoding="utf-8" ?>
<svg baseProfile="tiny" height="600px" version="1.2" viewBox="0,0,1200,600" width="1200px" xmlns="http://www.w3.org/2000/svg" xmlns:ev="http://www.w3.org/2001/xml-events" xmlns:xlink="http://www.w3.org/1999/xlink"><defs /><rect fill="#000" height="600" width="1200" x="0" y="0" /><g><polygon fill="#D1201E" points="250.0,277.5 430.0,282.0 440.0,300.0 430.0,318.0 250.0,322.5" /><circle cx="275.7143" cy="300.0" fill="#000" r="5" /><circle cx="301.4286" cy="300.0" fill="#000" r="5" /><circle cx="327.1429" cy="300.0" fill="#000" r="5" /><circle cx="352.8571" cy="300.0" fill="#000" r="5" /><circle cx="378.5714" cy="300.0" fill="#000" r="5" /><circle cx="404.2857" cy="300.0" fill="#000" r="5" /><polygon fill="#D1201E" points="269.4856,311.25 175.5885,464.8846 155.0,464.5448 144.4115,446.8846 230.5144,288.75" /><circle cx="237.1429" cy="322.2692" fill="#000" r="5" /><circle cx="224.2857" cy="344.5384" fill="#000" r="5" /><circle cx="211.4286" cy="366.8077" fill="#000" r="5" /><circle cx="198.5714" cy="389.0769" fill="#000" r="5" /><circle cx="185.7143" cy="411.3461" fill="#000" r="5" /><circle cx="172.8571" cy="433.6153" fill="#000" r="5" /><polygon fill="#D1201E" points="230.5144,311.25 144.4115,153.1154 155.0,135.4552 175.5885,135.1154 269.4856,288.75" /><circle cx="237.1429" cy="277.7308" fill="#000" r="5" /><circle cx="224.2857" cy="255.4616" fill="#000" r="5" /><circle cx="211.4286" cy="233.1923" fill="#000" r="5" /><circle cx="198.5714" cy="210.9231" fill="#000" r="5" /><circle cx="185.7143" cy="188.6539" fill="#000" r="5" /><circle cx="172.8571" cy="166.3847" fill="#000" r="5" /><circle cx="250" cy="300" fill="#D1201E" r="20" /></g><g fill="none" stroke="#FFFFFF" stroke-linecap="round" stroke-width="6"><path d="M 418.52977748617513,158.58672586896137 A 220,220 0 0,1 211.79740091327534,516.6577056626858" /><path d="M 395.5484441926058,177.87035415955754 A 190,190 0 0,1 217.00684624328323,487.1134730723195" /><path d="M 372.5671108990365,197.1539824501537 A 160,160 0 0,1 222.21629157329116,457.5692404819533" /></g><text fill="#FFFFFF" font-family="Arial Black, sans-serif" font-size="160" font-weight="bold" x="500" y="280">KHALID</text><text fill="#D1201E" font-family="Arial Black, sans-serif" font-size="160" font-weight="bold" x="500" y="430">FPV</text></svg>