<?xml version="1.0" encoding="UTF-8"?>
<svg version="1.1" xmlns="http://www.w3.org/2000/svg" width="500" height="230">
<path d="M0 0 C3.68503937 0.43503937 3.68503937 0.43503937 5 1.75 C6.11253943 26.75795158 -9.60010243 54.65015365 -23 74.75 C-23.29574005 77.16661873 -23.37679585 79.55191636 -23.4609375 81.984375 C-24 84.75 -24 84.75 -26.3359375 87.98828125 C-27.50564548 89.73863936 -27.50564548 89.73863936 -28 91.75 C-27.04340944 95.27077405 -25.20156006 98.12956308 -23.25 101.1875 C-22.755 102.01443359 -22.26 102.84136719 -21.75 103.69335938 C-20.52568719 105.72995665 -19.27628894 107.74571838 -18 109.75 C-18.76023826 106.44124072 -19.93035479 103.86029124 -21.5625 100.875 C-23.5674523 96.98032253 -24.58719513 94.21268303 -24 89.75 C-19.63391783 89.31339178 -17.60650886 89.31934745 -13.96875 91.90234375 C-1.08746726 103.36156192 7.16849452 133.80778015 8.16796875 150.56640625 C8 152.75 8 152.75 6.8125 154.5625 C4.32025176 156.19535229 2.94880457 156.10950593 0 155.75 C-14.80636467 145.75692549 -24.2616775 125.488227 -32.375 110.1875 C-32.83326172 109.32592285 -33.29152344 108.4643457 -33.76367188 107.57666016 C-35.95895707 103.29755581 -37.5739424 99.61810262 -38 94.75 C-38.721875 94.6675 -39.44375 94.585 -40.1875 94.5 C-43.58926868 93.59286169 -45.45466084 92.14989121 -48 89.75 C-48 89.09 -48 88.43 -48 87.75 C-48.70576172 88.27400391 -48.70576172 88.27400391 -49.42578125 88.80859375 C-50.04839844 89.26363281 -50.67101562 89.71867187 -51.3125 90.1875 C-51.92738281 90.63996094 -52.54226562 91.09242187 -53.17578125 91.55859375 C-62.243358 97.48067278 -77.84387949 93.49686136 -87.6875 91.5 C-111.32915067 86.53056622 -111.32915067 86.53056622 -117 82.75 C-117.5 79.8125 -117.5 79.8125 -117 76.75 C-102.85216081 65.97687474 -69.88180881 70.00051388 -52.828125 71.23828125 C-51 71.75 -51 71.75 -49 74.75 C-48.60167969 74.25628906 -48.20335938 73.76257813 -47.79296875 73.25390625 C-47.26316406 72.61324219 -46.73335938 71.97257812 -46.1875 71.3125 C-45.66542969 70.67441406 -45.14335938 70.03632812 -44.60546875 69.37890625 C-43 67.75 -43 67.75 -40 66.75 C-38.783125 66.95625 -37.56625 67.1625 -36.3125 67.375 C-34.14788459 67.52879734 -34.14788459 67.52879734 -32 66.75 C-28.75495837 63.44627769 -26.39264267 59.6989191 -24 55.75 C-23.54109375 54.99460938 -23.0821875 54.23921875 -22.609375 53.4609375 C-21.70368179 51.91105405 -20.84475751 50.33392034 -20 48.75 C-24.23345851 52.59859864 -27.33204386 56.91622097 -30.546875 61.640625 C-32 63.75 -32 63.75 -33 64.75 C-35.375 65.125 -35.375 65.125 -38 64.75 C-40.13342771 62.54545803 -40.90841128 60.83202487 -41.16796875 57.765625 C-40.84169118 50.95004913 -37.79016103 46.24680015 -34 40.75 C-33.54028809 40.08274902 -33.08057617 39.41549805 -32.60693359 38.72802734 C-23.79136367 25.98069638 -23.79136367 25.98069638 -19.73828125 20.93359375 C-17.85236685 18.6962039 -17.85236685 18.6962039 -16.3125 15.625 C-7.46359092 0.03571096 -7.46359092 0.03571096 0 0 Z " fill="#C60D0E" transform="translate(152,19.25)"/>
<path d="M0 0 C4.58980814 -0.07447267 9.17926014 -0.12875322 13.76953125 -0.16479492 C15.32916394 -0.17982869 16.88875472 -0.20026135 18.44824219 -0.22631836 C20.69737116 -0.26294211 22.94593847 -0.27978021 25.1953125 -0.29296875 C25.8861795 -0.30845261 26.57704651 -0.32393646 27.28884888 -0.33988953 C33.10645796 -0.34188614 36.96294938 1.28458895 41.375 5 C45.60153748 12.80283842 42.45977145 23.43360333 40.75 31.6875 C40.54503906 32.76322266 40.34007812 33.83894531 40.12890625 34.94726562 C38.26718054 44.15998711 35.96698465 51.4718882 28 57 C22.36335675 59.81832162 16.50738647 60.12618067 10.2890625 60.09765625 C9.04511719 60.09443359 7.80117188 60.09121094 6.51953125 60.08789062 C5.23433594 60.07951172 3.94914062 60.07113281 2.625 60.0625 C1.31660156 60.05798828 0.00820313 60.05347656 -1.33984375 60.04882812 C-4.55994281 60.03707594 -7.7799477 60.02064543 -11 60 C-9.26923729 47.47733236 -6.77503732 35.09483579 -4.375 22.6875 C-3.95030006 20.48246439 -3.52581908 18.27738659 -3.1015625 16.07226562 C-2.07023295 10.71435465 -1.03619912 5.35697123 0 0 Z M13 13 C10.65809385 24.30026559 8.44152096 35.54370188 7 47 C8.75094232 46.93962268 10.50091527 46.85073263 12.25 46.75 C13.22453125 46.70359375 14.1990625 46.6571875 15.203125 46.609375 C18.75950542 45.83452116 19.85279259 44.93058418 22 42 C22.90251278 39.42998743 23.59961365 37.07462558 24.1875 34.4375 C24.35330566 33.73093262 24.51911133 33.02436523 24.68994141 32.29638672 C26.64621002 23.73014244 26.64621002 23.73014244 27 15 C25.1371051 12.69939466 25.1371051 12.69939466 22.1796875 12.8046875 C21.08914063 12.82789062 19.99859375 12.85109375 18.875 12.875 C17.23144531 12.90207031 17.23144531 12.90207031 15.5546875 12.9296875 C14.71164062 12.95289062 13.86859375 12.97609375 13 13 Z " fill="#F3F3F3" transform="translate(418,53)"/>
<path d="M0 0 C1.39456452 0.00667256 2.78911118 0.01863093 4.18359375 0.03515625 C4.89451172 0.03966797 5.60542969 0.04417969 6.33789062 0.04882812 C8.09899388 0.06064761 9.86005411 0.07858362 11.62109375 0.09765625 C10.99789066 7.51049303 9.89927751 14.76940272 8.62109375 22.09765625 C12.91109375 22.42765625 17.20109375 22.75765625 21.62109375 23.09765625 C21.90984375 21.15890625 22.19859375 19.22015625 22.49609375 17.22265625 C23.37772689 11.47314868 24.43148771 5.79077086 25.62109375 0.09765625 C30.90109375 0.09765625 36.18109375 0.09765625 41.62109375 0.09765625 C39.8341809 12.61586437 37.3970679 24.99797736 34.99609375 37.41015625 C34.57139381 39.61519186 34.14691283 41.82026966 33.72265625 44.02539062 C32.69132657 49.38330232 31.65703304 54.74063398 30.62109375 60.09765625 C25.34109375 60.09765625 20.06109375 60.09765625 14.62109375 60.09765625 C15.26520761 54.54451929 16.12167179 49.08509989 17.18359375 43.59765625 C17.32216797 42.870625 17.46074219 42.14359375 17.60351562 41.39453125 C17.9404604 39.62847588 18.28045058 37.86300199 18.62109375 36.09765625 C14.33109375 36.09765625 10.04109375 36.09765625 5.62109375 36.09765625 C5.34394531 37.74636719 5.06679688 39.39507812 4.78125 41.09375 C4.41557456 43.24092119 4.04967773 45.38805468 3.68359375 47.53515625 C3.50119141 48.62376953 3.31878906 49.71238281 3.13085938 50.83398438 C2.95361328 51.86845703 2.77636719 52.90292969 2.59375 53.96875 C2.43140869 54.9270874 2.26906738 55.8854248 2.10180664 56.87280273 C1.62109375 59.09765625 1.62109375 59.09765625 0.62109375 60.09765625 C-1.90940027 60.17079192 -4.41195462 60.19013152 -6.94140625 60.16015625 C-8.0077832 60.15338867 -8.0077832 60.15338867 -9.09570312 60.14648438 C-10.85680638 60.13466489 -12.61786661 60.11672888 -14.37890625 60.09765625 C-13.71139243 51.85141849 -12.36709875 43.77465371 -10.90478516 35.64086914 C-10.5079243 33.4325149 -10.11675645 31.22321277 -9.7265625 29.01367188 C-8.45671394 21.85773109 -7.13981918 14.71102686 -5.74609375 7.578125 C-5.50745605 6.35375732 -5.26881836 5.12938965 -5.02294922 3.86791992 C-4.15161387 0.11998884 -4.15161387 0.11998884 0 0 Z " fill="#F3F3F3" transform="translate(251.37890625,52.90234375)"/>
<path d="M0 0 C0.96679688 0.01804688 1.93359375 0.03609375 2.9296875 0.0546875 C4.01636719 0.08949219 4.01636719 0.08949219 5.125 0.125 C4.5267119 3.19710855 3.61580941 5.10977783 1.6875 7.5625 C1.15511719 8.24957031 0.62273437 8.93664063 0.07421875 9.64453125 C-0.56902344 10.46308594 -1.21226562 11.28164063 -1.875 12.125 C-3.14486707 13.75961061 -4.41141758 15.39671743 -5.67602539 17.03540039 C-6.53856904 18.15242862 -7.40352476 19.26759975 -8.27124023 20.38061523 C-9.48760568 21.95048314 -10.68153526 23.53765251 -11.875 25.125 C-13.00736084 26.50196045 -13.00736084 26.50196045 -14.16259766 27.90673828 C-16.25189624 31.01256126 -16.25189624 31.01256126 -15.22753906 34.34472656 C-14.70385742 35.47362305 -14.18017578 36.60251953 -13.640625 37.765625 C-13.23260651 38.67800934 -13.23260651 38.67800934 -12.81634521 39.60882568 C-11.94474402 41.54376168 -11.0365205 43.45859312 -10.125 45.375 C-9.23640701 47.30877046 -8.35552107 49.24588295 -7.47650146 51.184021 C-6.67692143 52.9360909 -5.85890091 54.67971001 -5.04003906 56.42285156 C-3.875 59.125 -3.875 59.125 -3.875 61.125 C-9.485 61.125 -15.095 61.125 -20.875 61.125 C-24.55857533 53.2316243 -27.80669186 45.27793305 -30.875 37.125 C-32.525 45.045 -34.175 52.965 -35.875 61.125 C-41.155 61.125 -46.435 61.125 -51.875 61.125 C-50.57723553 53.21530507 -49.19799389 45.3292333 -47.7109375 37.453125 C-47.51400299 36.40469421 -47.31706848 35.35626343 -47.11416626 34.27606201 C-46.49392613 30.97549078 -45.8719945 27.67524102 -45.25 24.375 C-44.82540818 22.11720868 -44.40092803 19.85939636 -43.9765625 17.6015625 C-42.94399705 12.10913174 -41.90991603 6.61698832 -40.875 1.125 C-35.595 1.125 -30.315 1.125 -24.875 1.125 C-25.41457646 6.43083519 -26.09299387 11.68683873 -26.9140625 16.95703125 C-27.09404785 18.11565674 -27.2740332 19.27428223 -27.45947266 20.46801758 C-27.66515869 21.78322388 -27.66515869 21.78322388 -27.875 23.125 C-27.1951001 22.18648193 -27.1951001 22.18648193 -26.50146484 21.22900391 C-24.43267963 18.39134567 -22.34175861 15.5707603 -20.25 12.75 C-19.53714844 11.76515625 -18.82429688 10.7803125 -18.08984375 9.765625 C-17.03603516 8.35410156 -17.03603516 8.35410156 -15.9609375 6.9140625 C-15.3220459 6.04475098 -14.6831543 5.17543945 -14.02490234 4.27978516 C-10.02449582 0.270293 -5.45566411 -0.13306498 0 0 Z " fill="#F1F1F1" transform="translate(235.875,51.875)"/>
<path d="M0 0 C6.93 0 13.86 0 21 0 C21.99 12.375 21.99 12.375 23 25 C16.07 27.475 16.07 27.475 9 30 C8.67 25.38 8.34 20.76 8 16 C7.60167969 17.01320313 7.20335937 18.02640625 6.79296875 19.0703125 C6.25795321 20.42193071 5.72278904 21.77349009 5.1875 23.125 C4.79594727 24.12273437 4.79594727 24.12273437 4.39648438 25.140625 C2.78354539 29.2028417 1.01497248 33.11527829 -1 37 C-0.06933716 36.68192383 -0.06933716 36.68192383 0.88012695 36.35742188 C3.68934057 35.40024341 6.50086777 34.45004925 9.3125 33.5 C10.28896484 33.16613281 11.26542969 32.83226562 12.27148438 32.48828125 C13.20927734 32.17246094 14.14707031 31.85664062 15.11328125 31.53125 C15.97735596 31.23798828 16.84143066 30.94472656 17.73168945 30.64257812 C20 30 20 30 23 30 C23.70245385 40.36119436 24.10936569 50.61025963 24 61 C18.72 61 13.44 61 8 61 C8 56.38 8 51.76 8 47 C-0.59730199 47.77237127 -0.59730199 47.77237127 -7.78515625 51.875 C-8.77190066 53.91602266 -9.45517233 55.80297134 -10 58 C-10.33 58.99 -10.66 59.98 -11 61 C-16.28 61 -21.56 61 -27 61 C-26.17678641 56.88393207 -25.31382693 54.19518168 -23.55859375 50.4921875 C-23.06117676 49.43201416 -22.56375977 48.37184082 -22.05126953 47.27954102 C-21.51872559 46.15604248 -20.98618164 45.03254395 -20.4375 43.875 C-16.66638345 35.83297363 -12.99349224 27.78168855 -9.625 19.5625 C-6.8227771 12.74392573 -3.70362166 6.38874736 0 0 Z " fill="#EEEEEE" transform="translate(313,52)"/>
<path d="M0 0 C4.31244188 -0.05859908 8.62477974 -0.09379686 12.9375 -0.125 C14.14986328 -0.14175781 15.36222656 -0.15851563 16.61132812 -0.17578125 C32.73378295 -0.26316583 32.73378295 -0.26316583 38.53125 3.75390625 C42.06152236 9.15259403 40.478183 16.54729732 39.3046875 22.56640625 C37.50631133 29.20830816 36.01028006 33.44289547 30 37 C25.28776814 39.46955855 20.86993014 39.23134821 15.6875 39.125 C14.85154297 39.11597656 14.01558594 39.10695312 13.15429688 39.09765625 C11.10274031 39.07420989 9.05133223 39.03834266 7 39 C6.94368408 39.6091626 6.88736816 40.2183252 6.8293457 40.84594727 C6.33366191 46.07105855 5.38057046 50.93790831 4 56 C-0.95 56 -5.9 56 -11 56 C-7.40230052 37.31916179 -3.76252801 18.64850291 0 0 Z M13 12 C12.49564306 13.9363704 11.99666126 15.87414146 11.5 17.8125 C11.2215625 18.89144531 10.943125 19.97039062 10.65625 21.08203125 C9.89029052 23.98933975 9.89029052 23.98933975 10 27 C17.21111036 27.70887565 17.21111036 27.70887565 23.625 25.125 C25.58807005 22.09116447 26.12023216 20.45439369 26.0625 16.875 C26.041875 15.59625 26.02125 14.3175 26 13 C23.35541621 11.67770811 21.32238699 11.90322806 18.375 11.9375 C16.87066406 11.95103516 16.87066406 11.95103516 15.3359375 11.96484375 C14.17964844 11.98224609 14.17964844 11.98224609 13 12 Z " fill="#CA0C0D" transform="translate(348,123)"/>
<path d="M0 0 C4.62 0 9.24 0 14 0 C14.81629505 8.91750891 15.27758418 17.8008409 15.5625 26.75 C15.60568359 28.03132813 15.64886719 29.31265625 15.69335938 30.6328125 C15.79821334 33.75513066 15.90038018 36.87751121 16 40 C22.92487742 27.45473109 29.71535175 14.87922437 36 2 C36.33 1.34 36.66 0.68 37 0 C42.28 0 47.56 0 53 0 C51.47262879 3.81842802 49.89118808 7.20994145 47.9453125 10.8046875 C47.3356665 11.93551758 46.72602051 13.06634766 46.09790039 14.23144531 C45.77580597 14.82622681 45.45371155 15.4210083 45.12185669 16.03381348 C43.43071532 19.15733839 41.74842762 22.28561943 40.06640625 25.4140625 C39.55589973 26.36315491 39.55589973 26.36315491 39.03507996 27.3314209 C33.9291471 36.83807284 28.96587812 46.41964668 24 56 C17.07 56 10.14 56 3 56 C2.10050596 51.50252979 1.69483392 47.21367498 1.46484375 42.65625 C1.42186661 41.85070679 1.37888947 41.04516357 1.33460999 40.21520996 C1.24463159 38.51075477 1.15649125 36.80620167 1.07006836 35.1015625 C0.93934217 32.53615125 0.80117704 29.97122097 0.66210938 27.40625 C0.17941335 18.25467987 -0.10170037 9.16659306 0 0 Z " fill="#C90D0E" transform="translate(394,123)"/>
<path d="M0 0 C13.2 0 26.4 0 40 0 C38 12 38 12 37 13 C35.21928754 13.08726223 33.4351686 13.10699041 31.65234375 13.09765625 C30.57275391 13.09443359 29.49316406 13.09121094 28.38085938 13.08789062 C27.24455078 13.07951172 26.10824219 13.07113281 24.9375 13.0625 C23.79732422 13.05798828 22.65714844 13.05347656 21.48242188 13.04882812 C18.65492582 13.0369976 15.82745655 13.0190615 13 13 C12.34 16.63 11.68 20.26 11 24 C17.93 24 24.86 24 32 24 C31 32 31 32 30 36 C22.74 36 15.48 36 8 36 C7.71125 38.000625 7.4225 40.00125 7.125 42.0625 C6.39173908 46.86012143 5.50110028 51.38947773 4 56 C-0.62 56 -5.24 56 -10 56 C-9.33140653 45.91886413 -7.08574048 36.17442508 -5 26.3125 C-4.44454655 23.67023207 -3.89062198 21.02766103 -3.33911133 18.38456726 C-2.99772554 16.75009577 -2.6539595 15.11611891 -2.30737305 13.48274231 C-2.15051025 12.73473862 -1.99364746 11.98673492 -1.83203125 11.21606445 C-1.62670776 10.24537773 -1.62670776 10.24537773 -1.41723633 9.25508118 C-0.84942651 6.18617956 -0.44137433 3.08962034 0 0 Z " fill="#CA0C0D" transform="translate(302,123)"/>
<path d="M0 0 C5.28 0 10.56 0 16 0 C15.28079447 7.93823101 13.86172279 15.72772127 12.41601562 23.55834961 C11.99786087 25.82409073 11.58450096 28.09066801 11.171875 30.35742188 C10.90652719 31.80734242 10.64091176 33.25721402 10.375 34.70703125 C10.25205566 35.37998734 10.12911133 36.05294342 10.00244141 36.74629211 C9.42517523 39.86599279 8.77014595 42.9194162 8 46 C14.93 46 21.86 46 29 46 C28 56 28 56 27 60 C14.79 60 2.58 60 -10 60 C-9.33441213 52.67853343 -8.5483742 45.63704924 -7.25 38.4375 C-6.99428223 36.99201782 -6.99428223 36.99201782 -6.73339844 35.51733398 C-4.61463468 23.65472064 -2.31038185 11.8265038 0 0 Z " fill="#EFEFEF" transform="translate(352,53)"/>
<path d="M0 0 C1.39456452 0.00667256 2.78911118 0.01863093 4.18359375 0.03515625 C4.89451172 0.03966797 5.60542969 0.04417969 6.33789062 0.04882812 C8.09899388 0.06064761 9.86005411 0.07858362 11.62109375 0.09765625 C11.01094351 7.80852471 9.76048521 15.31720057 8.30859375 22.91015625 C8.0878418 24.08054443 7.86708984 25.25093262 7.63964844 26.45678711 C7.18847822 28.84587948 6.73552611 31.23463605 6.28076172 33.62304688 C5.65868296 36.89966603 5.04625714 40.17791464 4.4375 43.45703125 C4.08224497 45.35811287 3.72678837 47.25915683 3.37109375 49.16015625 C3.20826904 50.03969971 3.04544434 50.91924316 2.87768555 51.82543945 C1.7354781 57.86888754 1.7354781 57.86888754 0.62109375 60.09765625 C-4.32890625 60.09765625 -9.27890625 60.09765625 -14.37890625 60.09765625 C-13.88022336 48.66356987 -11.75596904 37.72026441 -9.51318359 26.51855469 C-8.87234076 23.31483386 -8.24395273 20.10884543 -7.6171875 16.90234375 C-7.21556154 14.86834772 -6.81324374 12.83448815 -6.41015625 10.80078125 C-6.22159058 9.8405304 -6.0330249 8.88027954 -5.83874512 7.89093018 C-5.66186157 7.01201111 -5.48497803 6.13309204 -5.30273438 5.22753906 C-5.14808716 4.45178528 -4.99343994 3.67603149 -4.83410645 2.87677002 C-4.01353114 -0.33038331 -3.53758153 0.10224224 0 0 Z " fill="#EEEEEE" transform="translate(398.37890625,52.90234375)"/>
<path d="M0 0 C2.875 0.75 2.875 0.75 3.875 1.75 C4.1875 4.625 4.1875 4.625 3.875 7.75 C2.1875 9.75 2.1875 9.75 -0.125 10.75 C-2.51763407 10.08228817 -4.34597385 9.52902615 -6.125 7.75 C-6.41931219 4.9540342 -6.46272308 3.31287181 -5 0.875 C-3.125 -0.25 -3.125 -0.25 0 0 Z " fill="#0D0201" transform="translate(116.125,95.25)"/>
<path d="M0 0 C6.6 0 13.2 0 20 0 C20 0.99 20 1.98 20 3 C13.73 3 7.46 3 1 3 C0.67 2.01 0.34 1.02 0 0 Z " fill="#160101" transform="translate(82,100)"/>
<path d="M0 0 C1.46373047 0.01353516 1.46373047 0.01353516 2.95703125 0.02734375 C4.06111328 0.04474609 4.06111328 0.04474609 5.1875 0.0625 C4.8575 1.3825 4.5275 2.7025 4.1875 4.0625 C3.8575 3.4025 3.5275 2.7425 3.1875 2.0625 C-5.13094179 1.83441219 -5.13094179 1.83441219 -12.0625 5.625 C-12.64 6.429375 -13.2175 7.23375 -13.8125 8.0625 C-14.4725 7.7325 -15.1325 7.4025 -15.8125 7.0625 C-11.495661 1.26560192 -11.495661 1.26560192 -8.5 0.375 C-5.63813991 0.04222557 -2.88054091 -0.03470531 0 0 Z " fill="#B7B7B7" transform="translate(235.8125,51.9375)"/>
</svg>
