<?xml version="1.0" encoding="UTF-8"?>
<svg version="1.1" xmlns="http://www.w3.org/2000/svg" width="225" height="225">
<path d="M0 0 C74.25 0 148.5 0 225 0 C225 74.25 225 148.5 225 225 C150.75 225 76.5 225 0 225 C0 150.75 0 76.5 0 0 Z " fill="#FEFEFE" transform="translate(0,0)"/>
<path d="M0 0 C11.39652134 -0.82242938 11.39652134 -0.82242938 15.421875 1.2421875 C18.75768346 4.23338765 20.45108757 7.00652824 20.875 11.5 C20.48481771 16.14237296 18.44638737 18.7260569 15.0234375 21.7578125 C11.9796001 23.62642311 9.45874377 23.49410625 6 23 C6 22.01 6 21.02 6 20 C5.01 20 4.02 20 3 20 C3 19.34 3 18.68 3 18 C2.01 18 1.02 18 0 18 C0 12.06 0 6.12 0 0 Z " fill="#222953" transform="translate(88,101)"/>
<path d="M0 0 C3.29714793 0.32971479 4.6226839 0.6226839 7 3 C7.66 2.34 8.32 1.68 9 1 C14.24763961 0.44174047 14.24763961 0.44174047 16.6730957 2.24145508 C18.35612094 4.47196673 18.34876643 5.67793413 18.29296875 8.44921875 C18.28330078 9.29677734 18.27363281 10.14433594 18.26367188 11.01757812 C18.23853516 11.89865234 18.21339844 12.77972656 18.1875 13.6875 C18.16719727 15.02651367 18.16719727 15.02651367 18.14648438 16.39257812 C18.11114079 18.59566166 18.06180493 20.79752582 18 23 C15.36 23 12.72 23 10 23 C9.67 18.38 9.34 13.76 9 9 C8.34 9 7.68 9 7 9 C6.67 13.62 6.34 18.24 6 23 C3.36 23 0.72 23 -2 23 C-2.05789006 19.54173658 -2.09355821 16.08359707 -2.125 12.625 C-2.14175781 11.64015625 -2.15851563 10.6553125 -2.17578125 9.640625 C-2.18222656 8.69960937 -2.18867188 7.75859375 -2.1953125 6.7890625 C-2.20578613 5.91975098 -2.21625977 5.05043945 -2.22705078 4.15478516 C-2 2 -2 2 0 0 Z " fill="#1D2550" transform="translate(137,101)"/>
<path d="M0 0 C3.54876542 2.73550668 4.68584012 4.26182032 5.4765625 8.63671875 C5.70906174 13.12150682 5.64393947 16.90252179 2.9375 20.625 C-0.58883125 23.47607633 -2.47432808 24.16163114 -7 24 C-10.02281924 22.25348221 -11.55970197 20.75479662 -13.3125 17.75 C-14.69948396 12.20206415 -14.83902945 8.53822066 -12.125 3.5625 C-8.74856603 -0.50908214 -5.11254717 -0.97754248 0 0 Z " fill="#232B54" transform="translate(63,101)"/>
<path d="M0 0 C1.134375 0.020625 2.26875 0.04125 3.4375 0.0625 C6.66994241 7.65344058 9.69542848 15.28053166 12.4375 23.0625 C6.0375 22.57019231 6.0375 22.57019231 3 20 C2.2265625 19.0409375 2.2265625 19.0409375 1.4375 18.0625 C2.0975 16.4125 2.7575 14.7625 3.4375 13.0625 C2.7775 12.7325 2.1175 12.4025 1.4375 12.0625 C1.4375 11.4025 1.4375 10.7425 1.4375 10.0625 C0.4475 10.0625 -0.5425 10.0625 -1.5625 10.0625 C-2.26324844 13.215868 -2.5625 15.78974974 -2.5625 19.0625 C-5.14474282 21.71852119 -6.64390949 22.98084751 -10.375 23.3125 C-11.096875 23.23 -11.81875 23.1475 -12.5625 23.0625 C-5.16477273 0.09061005 -5.16477273 0.09061005 0 0 Z " fill="#1F2651" transform="translate(120.5625,100.9375)"/>
<path d="M0 0 C4.62 0 9.24 0 14 0 C11 5 11 5 9 6 C8.67 11.61 8.34 17.22 8 23 C5.03 23 2.06 23 -1 23 C-0.67 15.41 -0.34 7.82 0 0 Z " fill="#1D2550" transform="translate(72,101)"/>
<path d="M0 0 C2.64 0 5.28 0 8 0 C8 5.61 8 11.22 8 17 C7.01 17 6.02 17 5 17 C5 17.99 5 18.98 5 20 C4.34 20 3.68 20 3 20 C3 20.99 3 21.98 3 23 C0.03 23 -2.94 23 -6 23 C-6 20.69 -6 18.38 -6 16 C-4.02 16 -2.04 16 0 16 C0 10.72 0 5.44 0 0 Z " fill="#181E4D" transform="translate(38,101)"/>
<path d="M0 0 C1.23556641 0.01740234 1.23556641 0.01740234 2.49609375 0.03515625 C3.32238281 0.04417969 4.14867187 0.05320312 5 0.0625 C5.63808594 0.07410156 6.27617187 0.08570312 6.93359375 0.09765625 C6.93359375 1.74765625 6.93359375 3.39765625 6.93359375 5.09765625 C4.29359375 5.09765625 1.65359375 5.09765625 -1.06640625 5.09765625 C-1.72640625 3.77765625 -2.38640625 2.45765625 -3.06640625 1.09765625 C-2.06640625 0.09765625 -2.06640625 0.09765625 0 0 Z " fill="#A6A9B6" transform="translate(169.06640625,110.90234375)"/>
<path d="M0 0 C3.63 0 7.26 0 11 0 C10.67 1.32 10.34 2.64 10 4 C5.545 4.495 5.545 4.495 1 5 C0.67 3.35 0.34 1.7 0 0 Z " fill="#8D90A2" transform="translate(182,111)"/>
<path d="M0 0 C1.32 0.33 2.64 0.66 4 1 C4.33 2.65 4.66 4.3 5 6 C3.68 5.67 2.36 5.34 1 5 C0.67 5.99 0.34 6.98 0 8 C-1.125 6.25 -1.125 6.25 -2 4 C-1.125 1.75 -1.125 1.75 0 0 Z " fill="#DFE0E5" transform="translate(119,110)"/>
<path d="M0 0 C0 1.98 0 3.96 0 6 C-0.78375 5.814375 -1.5675 5.62875 -2.375 5.4375 C-4.97089775 4.74037734 -4.97089775 4.74037734 -7 6 C-7 4.35 -7 2.7 -7 1 C-1.125 0 -1.125 0 0 0 Z " fill="#8D90A3" transform="translate(180,101)"/>
<path d="M0 0 C0.66 0 1.32 0 2 0 C2 1.98 2 3.96 2 6 C-2.875 5.125 -2.875 5.125 -4 4 C-4.66 4.66 -5.32 5.32 -6 6 C-6 4.68 -6 3.36 -6 2 C-4.02 2 -2.04 2 0 2 C0 1.34 0 0.68 0 0 Z " fill="#83889D" transform="translate(184,118)"/>
<path d="M0 0 C2.125 0.9375 2.125 0.9375 4 2 C3.67 3.65 3.34 5.3 3 7 C1.68 7 0.36 7 -1 7 C-1 6.34 -1 5.68 -1 5 C-1.66 5 -2.32 5 -3 5 C-2.625 3.0625 -2.625 3.0625 -2 1 C-1.34 0.67 -0.68 0.34 0 0 Z " fill="#E1E1E6" transform="translate(97,109)"/>
<path d="M0 0 C2.475 0.495 2.475 0.495 5 1 C5 2.65 5 4.3 5 6 C3.35 6 1.7 6 0 6 C0 4.02 0 2.04 0 0 Z " fill="#8D90A2" transform="translate(162,118)"/>
<path d="M0 0 C3.63 0 7.26 0 11 0 C9.35 1.98 7.7 3.96 6 6 C4 4 2 2 0 0 Z " fill="#E6E6EA" transform="translate(53,110)"/>
<path d="M0 0 C1.65 0 3.3 0 5 0 C5 0.66 5 1.32 5 2 C4.34 2 3.68 2 3 2 C3 3.32 3 4.64 3 6 C2.34 6 1.68 6 1 6 C0.67 4.02 0.34 2.04 0 0 Z " fill="#A8AAB7" transform="translate(162,109)"/>
<path d="M0 0 C0 0.33 0 0.66 0 1 C-1.0725 1.28875 -2.145 1.5775 -3.25 1.875 C-6.09400364 2.72820109 -8.43508983 3.5636503 -11 5 C-8.45499142 -0.63537615 -5.97208347 -0.11059414 0 0 Z " fill="#19214F" transform="translate(62,101)"/>
</svg>
