<svg xmlns="http://www.w3.org/2000/svg" viewBox="0 0 768 131.1"><defs><style>.cls-1{fill:#f1f1f1;}.cls-2{fill:#e30613;}</style></defs><g id="Layer_2" data-name="Layer 2"><g id="Layer_1-2" data-name="Layer 1"><path class="cls-1" d="M185.4,0H77C42.7,0,35.2,33,35.2,33H162.8Z"/><path class="cls-1" d="M479.4,0H370.6c-34.3,0-41.8,33-41.8,33H467.7Z"/><polygon class="cls-1" points="632.9 0 494.2 0 482.5 33 621.2 33 632.9 0"/><path class="cls-1" d="M151.3,91.2a63.6,63.6,0,0,0-.8-13.8c-.2-.8-.3-1.6-.5-2.4a37.6,37.6,0,0,0-7.8-16.5,36.4,36.4,0,0,0-3.4-3.4,34.7,34.7,0,0,0-8.4-5.2,47.2,47.2,0,0,0-9-2.9,70.6,70.6,0,0,0-9.1-1.1H34.5c0,38.5,38.9,38.5,38.9,38.5H103s6.5,0,6.5,6.5-6.5,6.4-6.5,6.4H11.7L0,130.2H109.3c34.3,0,41.2-33,41.2-33C150.9,95.2,151.1,93.2,151.3,91.2Z"/><polygon class="cls-1" points="245.8 45.8 202.7 45.8 144.2 131.1 231 131.1 258.7 97.2 210.8 97.2 245.8 45.8"/><polygon class="cls-1" points="292.4 33 286.5 0 234.1 0 211.5 33 292.4 33"/><path class="cls-1" d="M416.1,45.8,384.6,84.3h21.6l-4.4,12.3H381.7c-27.3,0-21.1-24.6-10.8-48a26.5,26.5,0,0,0,1.1-2.8H324.2c-29.1,78.8,19.8,85.3,67.4,85.3h41.1l30.1-85.3Z"/><polygon class="cls-1" points="251.5 45.8 266.4 131.1 309.9 131.1 294.7 45.8 251.5 45.8"/><polygon class="cls-1" points="507.7 97.2 512.2 84.3 558.7 84.3 590.1 45.8 541.6 45.8 513.9 79.5 525.8 45.8 478 45.8 447.9 131.1 586.5 131.1 598.5 97.2 507.7 97.2"/><polygon class="cls-2" points="384.6 84.3 416.1 45.8 462.8 45.8 431.4 84.3 384.6 84.3"/><path class="cls-1" d="M725.4,0H645.7L634.1,33H766.7C759.5.3,725.4,0,725.4,0Z"/><path class="cls-1" d="M768,45.8H693.6L665.9,79.5h0L678,45.8H629.5l-31,85.3h48.7L660.6,94l30.3,37.1h55.6L705.8,84.3h17.3S768,84.3,768,45.8Z"/></g></g></svg>