<svg width="141" height="24" viewBox="0 0 141 24" fill="none" xmlns="http://www.w3.org/2000/svg">
<path d="M33.9463 0H14.0988C7.8161 0 6.43945 6.03692 6.43945 6.03692H29.8088L33.9463 0Z" fill="#161615"/>
<path d="M87.7568 0H67.8488C61.5661 0 60.1895 6.03692 60.1895 6.03692H85.6226L87.7568 0Z" fill="#161615"/>
<path d="M115.851 0H90.4666L88.3325 6.03678H113.717L115.851 0Z" fill="#161615"/>
<path d="M27.6906 16.6963C27.7476 15.8545 27.6833 14.9992 27.5414 14.1754C27.5155 14.0248 27.4862 13.875 27.4537 13.7258C27.2127 12.6285 26.7597 11.5699 26.0257 10.7105C25.834 10.4864 25.6255 10.2764 25.4017 10.0845C24.9449 9.69291 24.4277 9.37629 23.8787 9.13217C23.3462 8.89565 22.7859 8.72681 22.2154 8.61045C21.6692 8.49927 21.1133 8.43608 20.5564 8.40881C20.3337 8.39776 20.1106 8.39258 19.8876 8.39258H6.31728C6.31728 15.427 13.4339 15.4356 13.4339 15.4356H18.8576C18.8576 15.4356 20.0357 15.4356 20.0357 16.6137C20.0357 17.7915 18.8576 17.7915 18.8576 17.7915H2.13384L0 23.8284H20.0029C26.2846 23.8284 27.5421 17.7936 27.5425 17.7915C27.6174 17.4317 27.6657 17.0654 27.6906 16.6963Z" fill="#161615"/>
<path d="M45.0019 8.39062H37.1014L26.4023 23.9996H42.2874L47.3549 17.7912H38.5979L45.0019 8.39062Z" fill="#161615"/>
<path d="M53.5212 6.03678L52.4414 0H42.8527L38.7148 6.03678H53.5212Z" fill="#161615"/>
<path d="M76.1783 8.39062L70.3948 15.4354H74.3545L73.5535 17.686H69.8769C64.871 17.686 66.0153 13.1776 67.8912 8.8906C68.0349 8.56223 68.1029 8.39062 68.1029 8.39062H59.3434C54.0244 22.8131 62.972 23.9998 71.6931 23.9998H79.2096L84.7275 8.39062H76.1783Z" fill="#161615"/>
<path d="M46.0415 8.39062L48.7677 23.9996H56.7339L53.942 8.39062H46.0415Z" fill="#161615"/>
<path d="M92.9366 17.7912L93.7694 15.4354H102.273L108.024 8.39062H99.1439L94.0788 14.56L96.2592 8.39233L87.5004 8.39062L81.9824 23.9996H107.366L109.561 17.7912H92.9366Z" fill="#161615"/>
<path d="M70.3945 15.4354L76.1782 8.39062H84.7274L78.9772 15.4354H70.3945Z" fill="#E30613"/>
<path d="M132.784 0H118.207L116.073 6.03692H140.344C139.031 0.0562808 132.784 0 132.784 0Z" fill="#161615"/>
<path d="M140.588 8.39062H126.931L126.929 8.39235H126.97L121.905 14.5601L121.89 14.5646L124.12 8.39062H115.24L109.562 23.9998H118.482L120.934 17.2098L126.477 23.9998H136.649L129.201 15.4354H132.367C132.367 15.4354 140.588 15.4354 140.588 8.39062Z" fill="#161615"/>
</svg>
